<?xml version="1.0" encoding="UTF-8" standalone="no"?>
<!-- Created with Inkscape (http://www.inkscape.org/) -->

<svg
   xmlns:dc="http://purl.org/dc/elements/1.1/"
   xmlns:cc="http://creativecommons.org/ns#"
   xmlns:rdf="http://www.w3.org/1999/02/22-rdf-syntax-ns#"
   xmlns:svg="http://www.w3.org/2000/svg"
   xmlns="http://www.w3.org/2000/svg"
   xmlns:sodipodi="http://sodipodi.sourceforge.net/DTD/sodipodi-0.dtd"
   xmlns:inkscape="http://www.inkscape.org/namespaces/inkscape"
   width="50.000004mm"
   height="40.000221mm"
   viewBox="0 0 177.16537 141.73307"
   id="svg4880"
   version="1.1"
   inkscape:version="0.91 r13725">
  <defs
     id="defs4882">
    <pattern
       id="EMFhbasepattern"
       patternUnits="userSpaceOnUse"
       width="6"
       height="6"
       x="0"
       y="0" />
    <pattern
       id="EMFhbasepattern-7"
       patternUnits="userSpaceOnUse"
       width="6"
       height="6"
       x="0"
       y="0" />
  </defs>
  <sodipodi:namedview
     id="base"
     pagecolor="#ffffff"
     bordercolor="#666666"
     borderopacity="1.0"
     inkscape:pageopacity="0.0"
     inkscape:pageshadow="2"
     inkscape:zoom="0.77792969"
     inkscape:cx="424.60303"
     inkscape:cy="128.09978"
     inkscape:document-units="px"
     inkscape:current-layer="layer1"
     showgrid="false"
     fit-margin-top="0"
     fit-margin-left="0"
     fit-margin-right="0"
     fit-margin-bottom="0"
     inkscape:window-width="1366"
     inkscape:window-height="716"
     inkscape:window-x="-8"
     inkscape:window-y="-8"
     inkscape:window-maximized="1" />
  <metadata
     id="metadata4885">
    <rdf:RDF>
      <cc:Work
         rdf:about="">
        <dc:format>image/svg+xml</dc:format>
        <dc:type
           rdf:resource="http://purl.org/dc/dcmitype/StillImage" />
        <dc:title></dc:title>
      </cc:Work>
    </rdf:RDF>
  </metadata>
  <g
     inkscape:label="Layer 1"
     inkscape:groupmode="layer"
     id="layer1"
     transform="translate(-33.536327,-878.65862)">
    <path
       id="path13"
       d="m 113.35815,941.98141 c -0.30802,-0.53567 -0.60264,-1.07135 -0.96423,-1.70078 0,-0.0535 -0.0509,-0.10701 -0.10176,-0.13394 -0.58925,-0.53568 -1.16511,-1.20529 -1.82533,-1.72758 -0.17409,-0.13393 -0.36159,-0.26787 -0.56247,-0.40174 -0.48211,-0.40177 -0.96422,-0.93745 -1.49589,-1.33922 -0.20087,-0.13394 -0.40176,-0.40174 -0.62942,-0.53568 -0.53568,-0.40174 -1.11154,-0.93745 -1.69945,-1.33919 -0.17408,-0.13394 -0.36159,-0.26788 -0.5089,-0.40178 -0.79013,-0.53568 -1.59767,-1.07135 -2.40922,-1.52667 l 0,-0.0535 c -2.10523,-1.20529 -4.336343,-2.23647 -6.744229,-3.06677 -16.735207,-5.59789 -34.814309,3.22746 -34.814309,3.22746 0,0 9.102562,17.87701 25.863617,23.48022 0.857091,0.26787 1.748998,0.53567 2.63689,0.80351 6.567446,-0.40174 13.286231,-0.80351 20.132901,-0.93745 -2.63689,-2.00877 -6.38934,-4.96843 -7.78479,-6.13354 -2.687776,-2.30343 -2.460111,-7.379 2.40923,-6.07996 6.49111,1.70079 7.96156,2.04896 8.84945,1.20526 0.37498,-0.40174 0.68299,-0.80352 0.93744,-1.20526 -0.30802,-0.53571 -0.70978,-1.07139 -1.01779,-1.72757 -0.1259,-0.13394 -0.17409,-0.26788 -0.28124,-0.40178 z m -9.38245,-23.58067 c 0.58924,0.40174 1.1651,0.80352 1.69944,1.20529 0,-0.0535 0,-0.10701 0,-0.13394 -0.0509,-0.80355 -0.12589,-1.62046 -0.12589,-2.43737 0,-0.0283 0,-0.0804 0,-0.13393 -0.10176,-0.53568 -0.17408,-1.07136 -0.22766,-1.70079 -0.58925,-5.19608 -0.0509,-10.24491 0.99101,-14.88387 -7.784778,-5.78537 -15.137803,-8.42361 -15.137803,-8.42361 0,0 -2.586002,7.7272 -2.84045,17.72436 4.91889,1.72758 10.548897,4.40596 15.366013,8.57087 0.10176,0.0535 0.22765,0.13394 0.28123,0.26788 z m 43.68907,11.46356 c -2.40924,0.80351 -4.64035,1.8749 -6.69469,3.06676 l 0,0 c -0.85709,0.53572 -1.674,1.07139 -2.46012,1.56689 -0.1474,0.10701 -0.28134,0.26787 -0.45532,0.40177 -0.62943,0.40174 -1.21868,0.80352 -1.74901,1.3392 -0.22783,0.13393 -0.40174,0.26787 -0.58921,0.40174 -0.58926,0.40177 -1.16511,0.93745 -1.74902,1.47313 -0.0751,0.0535 -0.17397,0.13393 -0.25441,0.26787 -0.683,0.66962 -1.34322,1.20529 -1.92711,1.87487 l 0,-0.0535 0,0.0535 c -0.36159,0.66962 -0.70978,1.20529 -1.07137,1.82133 -0.0509,0.10701 -0.10176,0.13394 -0.17408,0.26788 -0.36159,0.66961 -0.68299,1.20529 -1.04458,1.75436 0.22766,0.53568 0.58925,1.07135 0.99101,1.39277 0.88387,0.80351 2.35834,0.40177 8.84943,-1.2053 4.86801,-1.33919 5.09702,3.77657 2.3838,6.08 -1.39411,1.20526 -5.14789,4.13812 -7.75935,6.13354 6.82055,0.13393 13.51496,0.53567 20.00622,0.93745 0.88388,-0.26788 1.74898,-0.40178 2.6369,-0.80352 16.73518,-5.59789 25.81271,-23.48025 25.81271,-23.48025 0,0 -18.02835,-8.82535 -34.76357,-3.21407 z m -8.84945,-14.68166 c -0.10169,0.66958 -0.17397,1.20529 -0.22783,1.75436 0,0.0535 -0.051,0.0804 -0.051,0.13394 0,0.53567 -0.0248,1.07135 -0.0248,1.56685 -0.051,0.40177 -0.051,0.66961 -0.10169,0.93745 l 0,0 c 0.62943,-0.53568 1.24547,-0.93745 1.92713,-1.39277 4.81709,-4.20509 10.47256,-6.8969 15.41661,-8.62448 -0.25441,-9.99042 -2.84045,-17.72433 -2.84045,-17.72433 0,0 -7.35354,2.63824 -15.13765,8.42358 1.08475,4.63365 1.5722,9.68244 1.04457,14.88391 z"
       style="fill:#ffffff;fill-opacity:1;fill-rule:evenodd;stroke:none;stroke-width:0.19109249"
       inkscape:connector-curvature="0" />
    <path
       id="path15"
       d="m 105.67514,919.43996 c 0.0509,0.13393 0.0509,0.13393 0.0509,0.26787 0,0.40178 0.075,0.80352 0.12589,1.20529 0,0.13394 0,0.26788 0.0509,0.40174 0.17408,1.33923 0.40176,2.58467 0.65621,3.88371 0,0.0535 0.0509,0.10701 0.0509,0.13394 1.21868,5.5041 3.39756,10.5261 5.73045,14.75798 0.0509,0.0535 0.0509,0.10701 0.075,0.13394 0.33481,0.66961 0.62942,1.20529 0.99101,1.70079 0.0509,0.13393 0.12589,0.26787 0.22766,0.40177 0.3482,0.66962 0.70978,1.20529 1.01779,1.72758 l 0.0509,0 c 1.62311,-3.12035 0.85709,-8.90572 0.10177,-11.77161 -1.11154,-4.00419 -2.282,-5.1693 -4.66578,-10.32524 -2.30745,-5.022 -3.24623,-9.20033 0.85709,-12.401 5.35011,-3.92386 7.42989,-5.35681 7.42989,-5.35681 0,0 2.23111,-1.33923 2.53511,-3.40158 0.33481,-2.0222 0.45533,-5.022 1.08475,-5.27648 l 0,-0.0535 c 0.0259,0 0.0259,0 0.075,0.0535 0,-0.0535 0.0509,-0.0535 0.0509,-0.0535 l 0,0.0535 c 0.65621,0.26788 0.81691,3.24089 1.07136,5.27648 0.30802,2.10253 2.56055,3.40158 2.56055,3.40158 0,0 2.05434,1.41955 7.40442,5.35681 4.13281,3.20067 3.2208,7.379 0.91067,12.401 -2.38376,5.14255 -3.5502,6.32105 -4.66576,10.32524 -0.79013,2.86589 -1.54678,8.51733 0.0509,11.69124 0,0 0,-0.0535 0,-0.0535 0.36159,-0.53568 0.70978,-1.07135 1.07136,-1.75436 0.0509,-0.0804 0.10177,-0.13394 0.1473,-0.26788 0.3482,-0.66957 0.70977,-1.20525 1.07136,-1.82129 0,-0.0535 0.0509,-0.0804 0.0509,-0.13394 0.1259,-0.13393 0.22766,-0.40177 0.36159,-0.53568 0.12589,-0.26787 0.22765,-0.53567 0.36158,-0.66961 0.10176,-0.26787 0.22766,-0.40174 0.3482,-0.66958 0.12579,-0.26787 0.28134,-0.53568 0.40178,-0.80355 0.17397,-0.26787 0.3483,-0.66958 0.53567,-1.07135 0.1017,-0.26788 0.17398,-0.40174 0.28134,-0.66958 0.12579,-0.26788 0.25441,-0.53568 0.3616,-0.80355 0.12578,-0.26788 0.17397,-0.40174 0.30791,-0.66958 0.22783,-0.66962 0.45535,-1.20529 0.68301,-1.82133 0.0751,-0.0804 0.0751,-0.13394 0.12579,-0.26788 0.0751,-0.26787 0.22783,-0.66958 0.3483,-0.93741 0.051,-0.13394 0.1017,-0.40178 0.17398,-0.53572 0.10169,-0.40174 0.22783,-0.66958 0.30791,-1.07135 0.051,-0.13394 0.1017,-0.26788 0.1474,-0.40174 0.17398,-0.66962 0.40178,-1.33923 0.58926,-2.00881 0,-0.13394 0.0248,-0.26787 0.0751,-0.40177 0.1017,-0.40174 0.17398,-0.66958 0.28134,-1.07136 0.051,-0.13394 0.051,-0.26787 0.12579,-0.53568 0.22783,-1.20529 0.45531,-2.41058 0.58922,-3.62923 0.051,-0.13393 0.051,-0.40177 0.10169,-0.53567 0.0248,-0.40178 0.0751,-0.80356 0.12579,-1.07139 0,-0.40174 0.051,-0.80352 0.051,-1.07136 0.0248,-0.53568 0.0751,-1.07135 0.0751,-1.56685 0,-0.26787 0,-0.53568 0,-0.93745 -1.1e-4,-20.71612 -16.53245,-37.52713 -16.53245,-37.52713 0,0 -16.50701,16.81101 -16.50701,37.52713 0,0.26787 0,0.53567 0,0.80351 0.0259,0.80352 0.075,1.674 0.12589,2.43737 z m 18.73839,-1.52671 c 0,0 -0.17408,1.33923 -0.10176,1.72758 0.28123,0.93745 1.39411,2.0222 2.86455,2.0222 1.49589,0 3.19534,-1.47313 4.13278,-3.74978 0.88387,-2.33018 1.11154,-3.91046 -1.52134,-6.41477 -2.50966,-2.30343 -7.075,-5.57107 -7.65755,-6.03981 -0.58925,0.40177 -5.1479,3.72299 -7.65756,6.03981 -2.66234,2.50431 -2.40923,4.08459 -1.52134,6.41477 0.91066,2.27665 2.61145,3.74978 4.13278,3.74978 1.47044,0 2.586,-1.07136 2.81501,-2.0222 0.12589,-0.40174 -0.0509,-1.72758 -0.0509,-1.72758 0,0 -0.76334,-1.84808 -1.11154,-2.91944 -0.30802,0 -0.58924,-0.53567 -0.58924,-1.33922 0,-0.66958 0.28123,-1.3392 0.58924,-1.3392 l 0.0509,0.0535 c 0.22765,-1.79451 0.99101,-4.08455 3.27167,-4.11134 0.0259,0 0.075,0 0.075,0 0,0 0.0509,0 0.0509,0 2.282,0.0283 3.04267,2.30344 3.27033,4.11134 0.0259,0 0.0259,-0.0535 0.075,-0.0535 0.28124,0 0.53568,0.66962 0.53568,1.3392 0,0.80355 -0.25444,1.33922 -0.53568,1.33922 -0.36158,1.07136 -1.11154,2.91944 -1.11154,2.91944 z m 29.61633,39.40335 c -6.54201,-0.40174 -13.21122,-0.80352 -20.05696,-0.93742 -3.87968,-0.10701 -7.86113,-0.13394 -11.84123,-0.13394 -3.98146,0 -7.96156,0.0284 -11.89212,0.13394 -6.84601,0.13394 -13.514967,0.53568 -20.082281,0.93742 -20.716255,1.5267 -39.936489,4.45957 -56.620942,8.5709 27.004615,-3.03998 57.026587,-4.68719 88.595343,-4.68719 31.56873,0 61.59086,1.64721 88.57002,4.68719 -16.73522,-4.11133 -35.92998,-7.0442 -56.67155,-8.5709 z"
       style="fill:#ffffff;fill-opacity:1;fill-rule:evenodd;stroke:none;stroke-width:0.19109249"
       inkscape:connector-curvature="0" />
    <path
       id="path17"
       d="m 106.51188,925.19585 c -0.25445,-1.3392 -0.48211,-2.53109 -0.65621,-3.88368 -0.0509,-0.13394 -0.0509,-0.26787 -0.0509,-0.40178 -0.075,-0.40174 -0.1259,-0.80351 -0.1259,-1.20529 0,-0.0535 0,-0.10701 0,-0.13393 -0.58925,-0.40175 -1.11153,-0.80352 -1.69945,-1.20526 -13.058557,-8.97268 -29.920589,-8.37004 -29.920589,-8.37004 0,0 0.401761,7.43259 3.625221,16.05037 5.857672,-0.26787 12.52556,0.26787 18.86521,3.03998 2.383781,1.07135 4.563998,2.38376 6.567448,3.80332 l 0,0.0535 c 0.85709,0.53568 1.674,1.07139 2.43467,1.5267 0.17408,0.13394 0.36158,0.26788 0.48211,0.40178 0.58925,0.40174 1.16511,0.80352 1.749,1.33919 0.22766,0.13394 0.40176,0.26788 0.62943,0.53568 0.48211,0.40174 1.01779,0.80352 1.49589,1.33919 0.20087,0.13394 0.37497,0.26788 0.56246,0.40178 0.60264,0.53568 1.24546,1.20525 1.82534,1.72757 l 0,0 c -2.38379,-4.17834 -4.51312,-9.25391 -5.73045,-14.75667 0,-0.0283 -0.0509,-0.0804 -0.0509,-0.13393 z m 33.82543,-6.97724 c -0.68297,0.40174 -1.29901,0.93742 -1.92709,1.39277 l 0,0.0283 c 0,0.0535 0,0.0535 0,0.10701 -0.051,0.40174 -0.0751,0.80351 -0.12579,1.07135 0,0.13394 -0.051,0.40178 -0.051,0.53568 -0.17397,1.20529 -0.36159,2.46412 -0.62943,3.62923 -0.0248,0.13394 -0.0751,0.26787 -0.12579,0.53568 -0.0751,0.40177 -0.12578,0.80355 -0.28133,1.07139 0,0.0804 -0.0248,0.26787 -0.0751,0.40174 -0.17398,0.66961 -0.34831,1.36598 -0.58926,2.0088 0,0.13394 -0.10169,0.26788 -0.12578,0.40178 -0.1017,0.40174 -0.17398,0.66958 -0.33485,1.07135 -0.0248,0.13394 -0.12578,0.40174 -0.17397,0.53568 -0.12579,0.26788 -0.22748,0.66962 -0.3616,0.93745 0,0.0804 -0.051,0.13394 -0.0751,0.26788 -0.22784,0.66958 -0.50893,1.20525 -0.73659,1.82129 -0.0751,0.26788 -0.17397,0.40178 -0.25441,0.66962 -0.12578,0.26787 -0.22783,0.53567 -0.36159,0.80351 -0.1474,0.26788 -0.22784,0.40178 -0.33484,0.66962 -0.17398,0.40174 -0.34831,0.80351 -0.48214,1.07135 -0.17398,0.26788 -0.30791,0.53568 -0.45532,0.80352 -0.075,0.26787 -0.20087,0.40177 -0.30802,0.66961 -0.1259,0.26788 -0.28124,0.40174 -0.40176,0.66958 -0.075,0.26787 -0.22766,0.40178 -0.30802,0.66961 -0.0509,0 -0.0509,0.0284 -0.0509,0.0284 l 0,0.0535 c 0.58925,-0.66961 1.24546,-1.20529 1.92712,-1.87487 0.0751,-0.0535 0.17398,-0.13393 0.25441,-0.26787 0.58925,-0.53571 1.16511,-0.93745 1.74898,-1.47313 0.17397,-0.13394 0.36159,-0.26787 0.58925,-0.40177 0.53568,-0.40174 1.11153,-0.93742 1.74901,-1.3392 0.17398,-0.0804 0.30791,-0.26787 0.45532,-0.40177 0.79012,-0.53568 1.59767,-1.07136 2.46011,-1.56685 l 0,0 c 2.00346,-1.41956 4.18369,-2.71861 6.56745,-3.80335 6.31435,-2.75875 13.0077,-3.348 18.83991,-3.03998 3.24624,-8.62445 3.65067,-16.05168 3.65067,-16.05168 0,0 -16.68458,-0.66962 -29.69238,8.19592 z"
       style="fill:#ffffff;fill-opacity:1;fill-rule:evenodd;stroke:none;stroke-width:0.19109249"
       inkscape:connector-curvature="0" />
    <path
       id="path19"
       d="m 63.862431,982.14675 -6.263447,-15.21468 c -0.227658,-0.66958 -0.535681,-1.07135 -0.763346,-1.33919 -0.281232,-0.26788 -0.629426,-0.40178 -1.111539,-0.53568 -0.227657,-0.0535 -0.589248,-0.10701 -0.99101,-0.10701 -0.174082,0 -0.281232,-0.0804 -0.281232,-0.26787 0,-0.13394 0.227657,-0.26788 0.629426,-0.26788 0.482113,0 1.165103,0 1.978002,0.0283 0.830303,0.0535 1.368662,0.0535 1.648555,0.0535 0.125894,0 0.589252,0 1.299026,-0.0535 0.709778,-0.0283 1.29903,-0.0283 1.749002,-0.0283 0.361584,0 0.589248,0.0804 0.589248,0.26788 0,0.13394 -0.147295,0.26787 -0.401761,0.26787 -0.455329,0 -0.816913,0.0535 -0.937442,0.13394 -0.174083,0.10701 -0.281233,0.26787 -0.281233,0.53568 0,0.26787 0.227658,0.93745 0.589249,1.92844 l 4.260005,11.31626 0.125893,0 c 0.281233,-0.66958 0.763346,-1.98202 1.521334,-3.91046 0.763345,-1.87487 1.470447,-3.6962 2.105227,-5.30324 0.65621,-1.674 1.071362,-2.73199 1.245459,-3.2007 0.147295,-0.40178 0.227657,-0.66961 0.227657,-0.93745 0,-0.26788 -0.07498,-0.40174 -0.30802,-0.40174 -0.281232,-0.10701 -0.589248,-0.13394 -0.99101,-0.13394 -0.308019,0 -0.455329,-0.0804 -0.455329,-0.13394 0,-0.13393 0.227658,-0.26787 0.736562,-0.26787 0.482113,0 1.017794,0 1.597666,0.0284 0.629426,0.0535 0.937443,0.0535 0.99101,0.0535 0.125894,0 0.428546,0 1.071365,-0.0535 0.589249,-0.0284 0.99101,-0.0284 1.299026,-0.0284 0.334807,0 0.508897,0.0804 0.508897,0.26787 0,0.13394 -0.101799,0.26788 -0.401761,0.26788 -0.508897,0 -0.883875,0.10701 -1.218675,0.26787 -0.3482,0.26788 -0.830306,1.07136 -1.368666,2.23647 -0.374974,0.80351 -0.857087,2.0088 -1.521333,3.45515 -0.682994,1.47313 -1.138323,2.53109 -1.445,3.29442 -0.589248,1.33919 -1.299026,2.8659 -2.003446,4.56669 -0.763345,1.70078 -1.165107,2.69178 -1.299026,2.9864 -0.508897,1.07139 -0.816913,1.674 -0.937442,1.75436 -0.05088,0.0535 -0.147331,0.10701 -0.227658,0.10701 -0.147295,0 -0.281232,-0.10701 -0.401761,-0.26787 -0.101764,-0.13394 -0.30802,-0.53568 -0.535681,-1.20529 z"
       style="fill:#ffffff;fill-opacity:1;fill-rule:evenodd;stroke:none;stroke-width:0.19109249"
       inkscape:connector-curvature="0" />
    <path
       id="path21"
       d="m 76.920862,977.17698 0,-3.72299 c 0,-2.53109 0,-4.05776 0,-4.51311 -0.05088,-0.40174 -0.101764,-0.53568 -0.227658,-0.80352 -0.125894,-0.13393 -0.401761,-0.26787 -0.709778,-0.40174 -0.227657,-0.0804 -0.53568,-0.0804 -0.937442,-0.0804 -0.227657,0 -0.348201,-0.0535 -0.348201,-0.26788 0,-0.13393 0.174083,-0.13393 0.482113,-0.13393 0.45533,0 1.044578,0 1.799891,0 0.736561,0 1.245458,0.0535 1.368662,0.0535 l 5.958114,0 c 0.07498,0 0.401762,-0.0535 0.937442,-0.13394 0.05088,0 0.07498,0 0.174083,-0.0283 0.07501,-0.0535 0.125894,-0.0535 0.174083,-0.0535 0.07501,0 0.125893,0.0804 0.125893,0.13394 0,0.0535 0,0.13394 -0.05088,0.26788 0,0.0804 -0.02587,0.26787 -0.07501,0.40177 0,0.13394 0,0.40178 -0.05088,0.66962 0,0 0,0.26787 -0.05088,0.66957 -0.02587,0.40178 -0.02587,0.66962 -0.07498,0.80352 0,0.26787 -0.125894,0.40178 -0.227658,0.40178 -0.125894,0 -0.174083,-0.0804 -0.174083,-0.26788 0,-0.26787 -0.05088,-0.53568 -0.125893,-0.80351 -0.101764,-0.26788 -0.227658,-0.40178 -0.45533,-0.53568 -0.174082,-0.13394 -0.482113,-0.26788 -1.017793,-0.26788 -0.455329,-0.0535 -1.623111,-0.107 -3.423002,-0.107 -0.07498,0 -0.125893,0.0535 -0.125893,0.26787 l 0,5.19612 c 0,0.13394 0.05088,0.26787 0.125893,0.26787 2.256556,0 3.499339,0 3.854226,-0.0535 0.508897,-0.0535 0.85709,-0.13394 1.044577,-0.26788 0.174083,-0.13393 0.30802,-0.26787 0.361584,-0.26787 0.07501,0 0.174083,0.10701 0.174083,0.26787 0,0.0535 -0.101764,0.53568 -0.174083,1.52667 -0.101764,0.53572 -0.125893,1.07139 -0.125893,1.41956 0,0.26787 -0.05088,0.40177 -0.227658,0.40177 -0.101799,0 -0.174083,-0.0535 -0.174083,-0.13393 0,-0.0535 0,-0.13394 -0.05088,-0.26788 0,-0.26787 0,-0.40174 -0.05088,-0.53567 -0.125894,-0.40174 -0.535685,-0.66958 -1.191891,-0.80352 -0.562465,-0.0535 -1.723553,-0.0804 -3.448446,-0.0804 -0.05088,0 -0.101764,0.0804 -0.101764,0.26787 l 0,1.67404 0,3.17388 c 0,0.66961 0.227658,1.20529 0.629426,1.41955 0.401762,0.26788 1.165107,0.26788 2.332889,0.26788 0.937442,0 1.648559,-0.10701 2.054339,-0.26788 0.482113,-0.26787 0.763345,-0.80351 0.937442,-1.56685 0.05088,-0.26787 0.125894,-0.26787 0.227657,-0.26787 0.125894,0 0.200871,0.13394 0.200871,0.53568 0,0.80351 -0.07501,1.674 -0.30802,2.33022 -0.07501,0.26787 -0.125894,0.40174 -0.30802,0.40174 -0.101764,0.0804 -0.401758,0.0804 -0.857087,0.0804 -1.59767,0 -2.940888,0 -4.031001,-0.0804 -1.419555,0 -2.282,-0.0535 -2.485559,-0.0535 -0.101764,0 -0.281232,0 -0.562465,0 -0.254445,0.0535 -0.535681,0.0535 -0.709777,0.0535 -0.709778,0.0535 -1.191891,0.0535 -1.546778,0.0535 -0.281232,0 -0.401761,-0.10701 -0.401761,-0.26787 0,-0.13394 0.125893,-0.26788 0.361583,-0.26788 0.30802,0 0.589249,0 0.763346,-0.0535 0.361584,-0.13394 0.589248,-0.53568 0.65621,-1.07135 0.05088,-0.66962 0.101763,-2.10257 0.101763,-4.51312 z"
       style="fill:#ffffff;fill-opacity:1;fill-rule:evenodd;stroke:none;stroke-width:0.19109249"
       inkscape:connector-curvature="0" />
    <path
       id="path23"
       d="m 90.740224,977.17698 0,-3.74978 c 0,-2.5043 0,-4.03097 0,-4.48632 -0.05088,-0.40174 -0.147295,-0.66958 -0.281232,-0.80352 -0.125894,-0.13393 -0.361584,-0.26787 -0.709778,-0.40174 -0.174082,-0.0283 -0.482113,-0.0804 -0.883874,-0.0804 -0.227658,0 -0.361584,-0.0535 -0.361584,-0.13394 0,-0.13394 0.174083,-0.26787 0.482113,-0.26787 0.455329,0 1.044578,0 1.799887,0.0535 0.763349,0 1.245458,0 1.368666,0 0.174083,0 0.682994,0 1.521333,0 0.857091,-0.0535 1.572226,-0.0535 2.028894,-0.0535 0.964226,0 1.699448,0 2.282,0.0535 0.562465,0.0535 1.299026,0.13394 2.180221,0.26788 0.88388,0.13393 1.69945,0.40177 2.40923,0.80351 0.70977,0.26788 1.3941,0.80352 1.92711,1.33919 1.39411,1.39281 2.05433,3.20071 2.05433,5.37024 0,2.41055 -0.76334,4.33899 -2.35833,5.90588 -0.62942,0.66958 -1.57222,1.20525 -2.815,1.75433 -1.21868,0.53571 -2.738672,0.66961 -4.538563,0.66961 -0.254445,0 -1.138319,0 -2.585997,-0.10701 -0.937443,-0.0804 -1.699449,-0.13394 -2.180222,-0.13394 -0.101764,0 -0.281233,0 -0.535681,0 -0.281232,0 -0.562465,0 -0.736561,0 -0.709778,0.0535 -1.245459,0.0535 -1.546782,0.0535 -0.281232,0 -0.401758,-0.0535 -0.401758,-0.26788 0,-0.13393 0.125894,-0.13393 0.361584,-0.13393 0.30802,0 0.535681,-0.0535 0.763346,-0.10701 0.361584,-0.0804 0.589248,-0.40178 0.65621,-1.07139 0.05088,-0.53568 0.101763,-2.10253 0.101763,-4.45954 z m 2.940889,-4.08455 0,2.69178 c 0,2.27664 0,3.68281 0.05088,4.25866 0,0.80352 0.07501,1.3392 0.227658,1.47313 0.401761,0.53568 1.343222,0.80352 2.864555,0.80352 2.003446,0 3.626563,-0.53568 4.742113,-1.41956 1.24546,-1.07135 1.87622,-2.75874 1.87622,-5.2229 0,-1.20526 -0.17408,-2.27665 -0.58924,-3.22746 -0.40176,-0.80351 -0.88388,-1.56688 -1.445,-2.04899 -1.521336,-1.39276 -3.524783,-2.0222 -6.110784,-2.0222 -0.736561,0 -1.165107,0.0535 -1.343222,0.13394 -0.174082,0.0535 -0.281232,0.26787 -0.281232,0.40174 0,0.53568 0,1.92848 0,4.16495 z"
       style="fill:#ffffff;fill-opacity:1;fill-rule:evenodd;stroke:none;stroke-width:0.19109249"
       inkscape:connector-curvature="0" />
    <path
       id="path25"
       d="m 117.38982,977.93765 -5.1479,0 c -0.075,0 -0.12589,0.0804 -0.17408,0.13394 l -1.19189,2.81232 c -0.22766,0.53572 -0.33481,0.93746 -0.33481,1.33923 0,0.40174 0.28124,0.66958 0.85709,0.66958 l 0.3482,0 c 0.17409,0 0.36159,0.0535 0.36159,0.13394 0,0.13393 -0.17408,0.26787 -0.40176,0.26787 -0.28123,0 -0.65621,0 -1.24546,-0.0535 -0.56246,0 -0.93744,0 -1.1651,0 -0.0509,0 -0.22766,0 -0.5089,0 -0.25445,0.0535 -0.58925,0.0535 -0.96423,0.0535 -0.40176,0 -0.76334,0 -1.08475,0 -0.25445,0 -0.40176,-0.0535 -0.40176,-0.26787 0,-0.13394 0.10176,-0.13394 0.28123,-0.13394 0.0509,0 0.17408,0 0.30802,0 0.14733,-0.0535 0.28123,-0.0535 0.33481,-0.0535 0.48211,-0.0535 0.83031,-0.26788 1.07136,-0.53572 0.28123,-0.26787 0.48211,-0.66957 0.76335,-1.33919 l 5.73044,-13.17774 c 0.22766,-0.53567 0.42855,-0.80351 0.65621,-0.80351 0.1473,0 0.22766,0.0535 0.28123,0.13394 0.1259,0.0535 0.22766,0.26787 0.3482,0.53567 0.1259,0.40178 0.58925,1.3392 1.29903,2.98644 0.70978,1.64722 1.52133,3.52209 2.38378,5.58447 0.88388,2.04899 1.47045,3.49533 1.87622,4.39257 0.60264,1.33922 1.24546,2.10256 1.87623,2.23646 0.30801,0.0535 0.58924,0.10701 0.79012,0.10701 0.20087,0 0.33481,0.0535 0.33481,0.13394 0,0.13393 -0.33481,0.26787 -0.93744,0.26787 -1.57222,0 -2.99178,0 -4.20911,-0.0535 -0.45533,0 -0.65621,-0.0535 -0.65621,-0.13394 0,-0.13394 0.075,-0.13394 0.30802,-0.13394 0.0509,-0.0535 0.12589,-0.10701 0.17408,-0.13394 0.0509,-0.107 0.0509,-0.13393 0,-0.26787 l -1.69945,-4.23188 c 0,-0.10701 -0.10176,-0.13393 -0.22765,-0.13393 z m -4.69123,-1.20529 4.20911,0 c 0.1259,0 0.17409,-0.0535 0.1259,-0.13393 l -2.05434,-5.33006 c -0.0509,-0.10701 -0.10176,-0.13394 -0.12589,-0.13394 0,0 -0.0509,0.0804 -0.10176,0.13394 l -2.10523,5.33006 c -0.075,0.0804 -0.0509,0.13393 0.0509,0.13393 z"
       style="fill:#ffffff;fill-opacity:1;fill-rule:evenodd;stroke:none;stroke-width:0.19109249"
       inkscape:connector-curvature="0" />
    <path
       id="path27"
       d="m 128.16624,971.80143 0.22766,8.65123 c 0.0509,1.33923 0.28123,2.10256 0.76335,2.27664 0.28123,0.0804 0.65621,0.13394 1.11154,0.13394 0.28123,0 0.40176,0.0804 0.40176,0.26787 0,0.13394 -0.17408,0.26788 -0.53568,0.26788 -0.53569,0 -1.16511,0 -1.79989,-0.0535 -0.60265,0 -0.99101,-0.0535 -1.0178,-0.0535 -0.0509,0 -0.17408,0.0535 -0.40176,0.0535 -0.28123,0 -0.58925,0 -0.93744,0 -0.36158,0.0535 -0.68299,0.0535 -0.99101,0.0535 -0.36158,0 -0.53568,-0.10701 -0.53568,-0.26788 0,-0.13393 0.12589,-0.26787 0.36159,-0.26787 0.40175,0 0.70977,-0.0535 0.99101,-0.10701 0.30802,-0.0804 0.48211,-0.26787 0.53568,-0.66958 0.075,-0.26787 0.12589,-0.93745 0.12589,-1.92848 l 0.22766,-12.52151 c 0,-0.53568 0.075,-0.80355 0.36158,-0.80355 0.17408,0 0.48211,0.26787 0.93744,0.66961 l 0.70978,0.66961 c 0.5089,0.53568 0.99101,1.07136 1.57223,1.62043 0.53568,0.53568 1.24546,1.20529 2.10522,2.10256 0.8303,0.80352 1.59767,1.59364 2.33291,2.27665 0.42853,0.40174 0.9642,1.07135 1.77442,1.78111 0.76337,0.80352 1.44499,1.44635 1.97801,2.0222 0.58925,0.53568 0.93745,0.93746 0.99103,0.93746 l 0.12579,0 -0.22784,-9.38782 c 0,-0.66961 -0.0751,-1.07135 -0.17397,-1.33919 -0.12579,-0.26788 -0.30792,-0.40178 -0.58926,-0.53568 -0.22783,-0.10701 -0.58925,-0.13394 -1.11153,-0.13394 -0.28134,0 -0.3616,-0.0535 -0.3616,-0.26787 0,-0.13394 0.17398,-0.13394 0.53568,-0.13394 0.45532,0 0.99103,0 1.62312,0 0.65622,0 1.07135,0.0535 1.13832,0.0535 0,0 0.28134,-0.0535 0.76334,-0.0535 0.50889,0 0.93745,0 1.39411,0 0.30791,0 0.50889,0.0535 0.50889,0.13394 0,0.13394 -0.1474,0.26787 -0.40174,0.26787 -0.22783,0 -0.45535,0 -0.62943,0.0804 -0.30792,0.10701 -0.53568,0.26787 -0.62944,0.53567 -0.0751,0.26788 -0.17397,0.66962 -0.17397,1.2053 l -0.25441,13.33842 c 0,0.40178 -0.10169,0.66962 -0.34831,0.66962 -0.28134,0 -0.58925,-0.13394 -0.85709,-0.53568 -1.52132,-1.33919 -3.67611,-3.40158 -6.44021,-6.03982 -0.65623,-0.66958 -1.41958,-1.44634 -2.23113,-2.24986 -0.76335,-0.80351 -1.445,-1.52666 -1.92711,-2.04895 -0.53568,-0.53571 -0.81692,-0.93745 -0.93745,-0.93745 z"
       style="fill:#ffffff;fill-opacity:1;fill-rule:evenodd;stroke:none;stroke-width:0.19109249"
       inkscape:connector-curvature="0" />
    <path
       id="path29"
       d="m 150.30244,983.5663 c -1.59764,0 -2.7641,-0.13393 -3.57566,-0.53567 -0.17397,-0.10701 -0.30791,-0.13394 -0.36159,-0.26788 -0.051,-0.13394 -0.0751,-0.26787 -0.0751,-0.53568 0,-0.80351 0.0751,-1.674 0.12579,-2.78553 0,-0.40178 0.12578,-0.53568 0.30791,-0.53568 0.12579,0 0.22784,0.13394 0.22784,0.40174 0,0.26788 0.051,0.66962 0.17397,1.07139 0.22784,0.66958 0.62943,1.20526 1.29905,1.59364 0.68297,0.26787 1.39408,0.53568 2.20564,0.53568 0.93745,0 1.64856,-0.26788 2.23111,-0.80352 0.53568,-0.53568 0.81691,-1.20529 0.81691,-1.92844 0,-0.53568 -0.17398,-1.07136 -0.45531,-1.52671 -0.28134,-0.40174 -0.85709,-0.93745 -1.69945,-1.47313 l -1.29904,-0.80351 c -1.29901,-0.66958 -2.15476,-1.44635 -2.68778,-2.20968 -0.4821,-0.80352 -0.76333,-1.64721 -0.76333,-2.58467 0,-1.20529 0.53567,-2.27664 1.57223,-3.03998 1.07136,-0.80351 2.4092,-1.20529 3.98144,-1.20529 1.16511,0 2.18023,0.13394 3.06812,0.40178 0.22783,0.0283 0.33484,0.13393 0.33484,0.26787 0,0.0535 0,0.13394 -0.051,0.40174 0,0.26788 0,0.53568 0,0.93745 0,0.40178 -0.051,0.80352 -0.051,1.2053 0,0.53567 -0.0751,0.66957 -0.25441,0.66957 -0.1474,0 -0.22783,-0.13393 -0.22783,-0.40174 0,-0.53567 -0.17398,-0.93745 -0.58926,-1.36598 -0.53567,-0.66961 -1.34323,-0.93745 -2.40923,-0.93745 -0.81691,0 -1.52132,0.13394 -2.15476,0.66962 -0.58925,0.40174 -0.85709,0.93741 -0.85709,1.62042 0,0.53568 0.1474,0.93745 0.45532,1.39277 0.30791,0.40177 0.93745,0.93745 1.87621,1.41955 l 0.88388,0.40178 c 1.39412,0.80351 2.33291,1.59364 2.91547,2.41055 0.58922,0.80351 0.85709,1.75436 0.85709,2.75874 0,1.56689 -0.73658,2.91948 -2.15479,3.95065 -0.81691,0.53568 -2.05434,0.80352 -3.67611,0.80352 z"
       style="fill:#ffffff;fill-opacity:1;fill-rule:evenodd;stroke:none;stroke-width:0.19109249"
       inkscape:connector-curvature="0" />
    <path
       id="path31"
       d="m 163.94424,974.18387 8.24011,0 c 0.0751,0 0.12578,-0.0535 0.12578,-0.13393 l 0,-0.40174 c 0,-2.20972 0,-3.72299 -0.051,-4.66044 -0.0248,-0.40178 -0.0751,-0.53568 -0.2009,-0.80352 -0.14741,-0.13394 -0.40174,-0.26787 -0.76334,-0.40178 -0.1474,-0.0804 -0.40174,-0.0804 -0.81691,-0.0804 -0.28134,0 -0.34831,-0.0535 -0.34831,-0.26787 0,-0.13394 0.12579,-0.26788 0.42857,-0.26788 0.45531,0 1.08475,0 1.87621,0.0535 0.81691,0 1.27223,0 1.39412,0 0.17397,0 0.58925,0 1.24544,0 0.73658,-0.0535 1.27226,-0.0535 1.57223,-0.0535 0.33484,0 0.50889,0.0535 0.50889,0.26788 0,0.13393 -0.17398,0.26787 -0.40174,0.26787 -0.17398,0 -0.36159,0 -0.68301,0.0804 -0.25441,0.0535 -0.42852,0.13394 -0.58925,0.26788 -0.0751,0.13394 -0.17398,0.40177 -0.2009,0.80355 0,0.40174 -0.051,1.98202 -0.051,4.48632 l 0,3.74974 c 0,2.35701 0.051,3.88372 0.12579,4.51311 0.051,0.26788 0.10169,0.53572 0.22783,0.80355 0.0751,0.13394 0.30792,0.26788 0.6294,0.26788 0.30792,0.0535 0.65622,0.10701 1.11154,0.10701 0.2009,0 0.36159,0.0535 0.36159,0.13393 0,0.13394 -0.17397,0.26788 -0.45531,0.26788 -0.53568,0 -1.24548,0 -2.05434,-0.0535 -0.81691,0 -1.24547,0 -1.41956,0 -0.10169,0 -0.56246,0 -1.27226,0 -0.76333,0.0535 -1.29901,0.0535 -1.59764,0.0535 -0.33484,0 -0.45535,-0.0535 -0.45535,-0.26788 0,-0.13393 0.10169,-0.13393 0.3616,-0.13393 0.30791,0 0.58925,-0.0535 0.76333,-0.10701 0.36159,-0.0804 0.58925,-0.40178 0.68301,-1.07139 0.0248,-0.53568 0.0751,-2.04895 0.0751,-4.45954 l 0,-1.56685 c 0,-0.0804 -0.051,-0.13393 -0.12579,-0.13393 l -8.24014,0 c -0.0751,0 -0.12579,0.0535 -0.12579,0.13393 l 0,1.56685 c 0,2.23647 0,3.74978 0.1017,4.51311 0.0751,0.26788 0.12578,0.53568 0.25441,0.80352 0.10169,0.13394 0.28133,0.26787 0.58925,0.26787 0.30791,0.0535 0.65622,0.10701 1.11153,0.10701 0.22784,0 0.3616,0.0535 0.3616,0.13394 0,0.13393 -0.12579,0.26787 -0.42857,0.26787 -0.56246,0 -1.21865,0 -2.07978,-0.0535 -0.8303,0 -1.36863,0 -1.52131,0 -0.12579,0 -0.56247,0 -1.24548,0 -0.70976,0.0535 -1.24543,0.0535 -1.52132,0.0535 -0.30791,0 -0.45535,-0.0535 -0.45535,-0.26787 0,-0.13394 0.1017,-0.13394 0.37499,-0.13394 0.30792,0 0.53568,-0.0535 0.76334,-0.10701 0.36159,-0.0804 0.53571,-0.40177 0.60264,-1.07139 0.1017,-0.53567 0.1017,-2.10252 0.1017,-4.45953 l 0,-3.74978 c 0,-2.5043 0,-4.03097 0,-4.48632 0,-0.40174 -0.1017,-0.53568 -0.22784,-0.80352 -0.12579,-0.13393 -0.36159,-0.26787 -0.70979,-0.40177 -0.17398,-0.0804 -0.45532,-0.0804 -0.91067,-0.0804 -0.20091,0 -0.36156,-0.0535 -0.36156,-0.26787 0,-0.13394 0.1474,-0.26787 0.50889,-0.26787 0.40174,0 1.01778,0 1.77445,0.0535 0.81691,0 1.27223,0 1.39408,0 0.17398,0 0.58925,0 1.34458,0 0.76334,-0.0535 1.29901,-0.0535 1.59768,-0.0535 0.28134,0 0.45531,0.0535 0.45531,0.26787 0,0.13394 -0.12578,0.26787 -0.40177,0.26787 -0.17398,0 -0.34831,0 -0.6294,0.0804 -0.30791,0.0535 -0.48214,0.13394 -0.60265,0.26787 -0.10169,0.13394 -0.17397,0.40178 -0.17397,0.80355 -0.051,0.40174 -0.051,2.02217 -0.051,4.66041 l 0,0.40177 c 0,0.10701 0.051,0.13394 0.12579,0.13394 z"
       style="fill:#ffffff;fill-opacity:1;fill-rule:evenodd;stroke:none;stroke-width:0.19109249"
       inkscape:connector-curvature="0" />
    <path
       id="path33"
       d="m 188.46382,977.93765 -5.14789,0 c -0.0751,0 -0.17398,0.0804 -0.17398,0.13394 l -1.16511,2.81232 c -0.25441,0.53572 -0.36159,0.93746 -0.36159,1.33923 0,0.40174 0.28134,0.66958 0.85709,0.66958 l 0.36159,0 c 0.17398,0 0.30792,0.0535 0.30792,0.13394 0,0.13393 -0.12579,0.26787 -0.3616,0.26787 -0.22783,0 -0.62943,0 -1.27222,-0.0535 -0.53568,0 -0.93745,0 -1.13832,0 -0.051,0 -0.22784,0 -0.50893,0 -0.25441,0.0535 -0.58922,0.0535 -0.99099,0.0535 -0.37499,0 -0.7098,0 -1.07136,0 -0.28133,0 -0.40177,-0.0535 -0.40177,-0.26787 0,-0.13394 0.10169,-0.13394 0.28134,-0.13394 0.051,0 0.17397,0 0.30791,0 0.17398,-0.0535 0.28134,-0.0535 0.30791,-0.0535 0.50889,-0.0535 0.85709,-0.26788 1.08475,-0.53572 0.25441,-0.26787 0.4821,-0.66957 0.76334,-1.33919 l 5.73045,-13.17774 c 0.2009,-0.53567 0.42856,-0.80351 0.65622,-0.80351 0.12578,0 0.22783,0.0535 0.30791,0.13394 0.10169,0.0535 0.17398,0.26787 0.33484,0.53567 0.12579,0.40178 0.58925,1.3392 1.29901,2.98644 0.7098,1.64722 1.52136,3.52209 2.35836,5.58447 0.91063,2.04899 1.52132,3.49533 1.9271,4.39257 0.58925,1.33922 1.21868,2.10256 1.85077,2.23646 0.30792,0.0535 0.56247,0.10701 0.79013,0.10701 0.22783,0 0.33484,0.0535 0.33484,0.13394 0,0.13393 -0.33484,0.26787 -0.93746,0.26787 -1.5722,0 -2.96631,0 -4.20909,-0.0535 -0.45531,0 -0.62943,-0.0535 -0.62943,-0.13394 0,-0.13394 0.10169,-0.13394 0.28134,-0.13394 0.0751,-0.0535 0.12578,-0.10701 0.17397,-0.13394 0.0284,-0.107 0.0284,-0.13393 0,-0.26787 l -1.69947,-4.23188 c 0,-0.10701 -0.1017,-0.13393 -0.22784,-0.13393 z m -4.69123,-1.20529 4.23457,0 c 0.1017,0 0.1474,-0.0535 0.1017,-0.13393 l -2.05434,-5.33006 c -0.0482,-0.10701 -0.1017,-0.13394 -0.1017,-0.13394 -0.0482,0 -0.0751,0.0804 -0.12578,0.13394 l -2.15476,5.33006 c -0.0535,0.0804 0,0.13393 0.10169,0.13393 z"
       style="fill:#ffffff;fill-opacity:1;fill-rule:evenodd;stroke:none;stroke-width:0.19109249"
       inkscape:connector-curvature="0" />
    <path
       id="path35"
       d="m 55.748339,997.66409 c 0.629426,0 1.312416,-0.0535 1.699448,-0.26787 0.147331,-0.0535 0.20087,-0.10701 0.227658,-0.26787 0.101763,-0.40178 0.227657,-1.07136 0.227657,-1.20529 0,-0.0804 -0.05088,-0.13394 -0.07501,-0.13394 -0.05088,0 -0.05088,0.0535 -0.101764,0.13394 0,0.13393 -0.125893,0.53567 -0.361583,0.80351 -0.348201,0.40178 -0.857091,0.40178 -1.572226,0.40178 -2.003446,0 -3.397557,-1.56685 -3.397557,-3.29443 0,-0.93745 0.125894,-1.75436 0.857091,-2.38379 0.361584,-0.26788 0.883874,-0.66962 2.105227,-0.66962 0.830304,0 1.521333,0.26788 1.876221,0.53571 0.254444,0.13394 0.401761,0.53568 0.401761,0.93742 0,0.13394 0,0.26788 0.07498,0.26788 0.05088,0 0.1018,-0.0535 0.1018,-0.26788 0,-0.13394 0,-0.66958 0,-0.93742 0.02587,-0.26787 0.07498,-0.40177 0.07498,-0.53571 0,-0.0535 -0.05088,-0.10701 -0.125894,-0.10701 -0.334807,0 -0.629426,-0.0804 -0.99101,-0.13393 -0.455329,-0.0535 -0.99101,-0.13394 -1.343221,-0.13394 -1.470445,0 -2.332889,0.40174 -2.940889,1.07135 -0.816913,0.80352 -1.044577,1.87487 -1.044577,2.50431 0,0.80351 0.227657,1.87487 1.165106,2.69181 0.763346,0.66958 1.699448,0.93742 3.119004,0.93742 z"
       style="fill:#ffffff;fill-opacity:1;fill-rule:evenodd;stroke:none;stroke-width:0.19109249"
       inkscape:connector-curvature="0" />
    <path
       id="path37"
       d="m 58.968585,994.08978 c 0,1.64722 1.084752,3.57566 3.676111,3.57566 2.281999,0 3.854225,-1.70079 3.854225,-3.72299 0,-2.12931 -1.674004,-3.46854 -3.803336,-3.46854 -2.586002,0 -3.727,2.12935 -3.727,3.62923 z m 0.937442,-0.26787 c 0,-1.98202 1.165104,-2.98641 2.738669,-2.98641 1.521333,0 2.864555,1.2053 2.864555,3.40158 0,2.63824 -1.749002,3.09355 -2.586002,3.09355 -1.699448,0 -3.017222,-1.33919 -3.017222,-3.49533 z"
       style="fill:#ffffff;fill-opacity:1;fill-rule:evenodd;stroke:none;stroke-width:0.19109249"
       inkscape:connector-curvature="0" />
    <path
       id="path39"
       d="m 68.730836,991.98453 c 0.30802,0.26787 1.394107,1.41955 2.509665,2.58466 0.991009,1.07136 2.358333,2.41059 2.460114,2.46416 0.482113,0.53568 0.589249,0.53568 0.709778,0.53568 0.05088,0 0.05088,-0.0535 0.05088,-0.66962 l 0.02587,-5.3568 c 0,-0.53568 0,-0.66962 0.334807,-0.80352 0.125894,0 0.174083,0 0.227657,0 0.07498,0 0.125894,-0.0535 0.125894,-0.0804 0,-0.0535 -0.101764,-0.10701 -0.174082,-0.10701 -0.401758,0 -0.709775,0.0535 -0.816914,0.0535 -0.125893,0 -0.589248,-0.0535 -1.017793,-0.0535 -0.101764,0 -0.174083,0.0535 -0.174083,0.10701 0,0.0283 0.02587,0.0804 0.07501,0.0804 0.101764,0 0.30802,0 0.455329,0.0535 0.30802,0.0535 0.361584,0.26788 0.361584,0.80352 l 0.125894,4.56669 c -0.30802,-0.26788 -1.299026,-1.36602 -2.231111,-2.35701 -1.470444,-1.47313 -2.865891,-2.97305 -2.991778,-3.09356 -0.101763,-0.0804 -0.281232,-0.26787 -0.401761,-0.26787 -0.05088,0 -0.125894,0.13394 -0.125894,0.53568 l 0,5.24965 c 0,0.80355 0,1.07139 -0.281232,1.20529 -0.125894,0.0535 -0.30802,0.0535 -0.361587,0.0535 -0.05088,0 -0.101764,0.0535 -0.101764,0.10701 0,0.0283 0.05088,0.0804 0.147295,0.0804 0.428545,0 0.830307,-0.0804 0.937442,-0.0804 0.07501,0 0.428546,0.0804 0.964226,0.0804 0.147296,0 0.20087,-0.0535 0.20087,-0.0804 0,-0.0535 -0.05088,-0.10701 -0.101799,-0.10701 -0.101764,0 -0.30802,0 -0.455329,-0.0535 -0.254445,-0.0804 -0.361584,-0.26787 -0.401761,-1.07135 z"
       style="fill:#ffffff;fill-opacity:1;fill-rule:evenodd;stroke:none;stroke-width:0.19109249"
       inkscape:connector-curvature="0" />
    <path
       id="path41"
       d="m 77.504083,991.98453 c 0.254445,0.26787 1.343222,1.41955 2.409226,2.58466 1.017793,1.07136 2.409225,2.41059 2.460114,2.46416 0.535681,0.53568 0.629426,0.53568 0.763346,0.53568 0.05088,0 0.05088,-0.0535 0.05088,-0.66962 l 0,-5.3568 c 0,-0.53568 0.02587,-0.66962 0.361584,-0.80352 0.125894,0 0.174083,0 0.227658,0 0.07501,0 0.125894,-0.0535 0.125894,-0.0804 0,-0.0535 -0.101764,-0.10701 -0.174083,-0.10701 -0.401762,0 -0.709778,0.0535 -0.816913,0.0535 -0.125894,0 -0.589249,-0.0535 -1.017794,-0.0535 -0.101764,0 -0.20087,0.0535 -0.20087,0.10701 0,0.0283 0,0.0804 0.101799,0.0804 0.101764,0 0.281232,0 0.455326,0.0535 0.30802,0.0535 0.361587,0.26788 0.361587,0.80352 l 0.125894,4.56669 c -0.30802,-0.26788 -1.299026,-1.36602 -2.231111,-2.35701 -1.470444,-1.47313 -2.864555,-2.97305 -2.991777,-3.09356 -0.101799,-0.0804 -0.281232,-0.26787 -0.401762,-0.26787 -0.05088,0 -0.125893,0.13394 -0.125893,0.53568 l 0,5.24965 c 0,0.80355 0,1.07139 -0.281233,1.20529 -0.125893,0.0535 -0.308019,0.0535 -0.361584,0.0535 -0.05088,0 -0.101763,0.0535 -0.101763,0.10701 0,0.0283 0.05088,0.0804 0.147295,0.0804 0.428542,0 0.830303,-0.0804 0.937439,-0.0804 0.07501,0 0.482113,0.0804 1.017793,0.0804 0.101764,0 0.125894,-0.0535 0.125894,-0.0804 0,-0.0535 0,-0.10701 -0.02587,-0.10701 -0.101764,0 -0.334807,0 -0.508897,-0.0535 -0.254445,-0.0804 -0.30802,-0.26787 -0.348201,-1.07135 z"
       style="fill:#ffffff;fill-opacity:1;fill-rule:evenodd;stroke:none;stroke-width:0.19109249"
       inkscape:connector-curvature="0" />
    <path
       id="path43"
       d="m 85.947756,994.87587 c 0,0.80355 0,1.56688 -0.07501,1.98202 -0.05088,0.26787 -0.05088,0.40177 -0.227658,0.53567 -0.101763,0 -0.227657,0.0535 -0.281232,0.0535 -0.07501,0 -0.07501,0 -0.07501,0.0535 0,0.0535 0.02587,0.0804 0.125894,0.0804 0.174083,0 0.348201,-0.0283 0.535681,-0.0283 0.227657,0 0.401758,0 0.455329,0 0.125894,0 0.348201,0 0.763345,0 0.401758,0.0283 0.937439,0.0804 1.648556,0.0804 0.401761,0 0.455329,0 0.535681,-0.26787 0.05088,-0.13394 0.125893,-0.80355 0.125893,-0.93746 0,-0.0283 0,-0.13393 -0.02587,-0.13393 -0.101764,0 -0.101764,0.0535 -0.101764,0.13393 -0.07501,0.40174 -0.174082,0.53568 -0.455329,0.66962 -0.254445,0.13394 -0.763345,0.13394 -0.964226,0.13394 -0.937442,0 -1.111539,-0.13394 -1.111539,-0.80352 0,-0.13394 0,-1.20529 0,-1.52671 l 0,-0.80351 c 0,-0.0284 0,-0.0804 0.07501,-0.0804 0.125894,0 1.165103,0 1.394107,0.0535 0.401762,0.0284 0.482113,0.13394 0.535681,0.26787 0.05088,0.13394 0.05088,0.26788 0.05088,0.26788 0,0.0283 0,0.0804 0.02587,0.0804 0.101799,0 0.101799,-0.0804 0.101799,-0.13394 0,-0.0535 0,-0.40174 0.05088,-0.53567 0,-0.26788 0.05088,-0.53568 0.05088,-0.53568 0,-0.0535 0,-0.0535 -0.05088,-0.0535 0,0 -0.05088,0.0535 -0.147295,0.107 -0.07498,0.0804 -0.20087,0.0804 -0.428546,0.13394 -0.227657,0.0535 -1.470444,0.0535 -1.623111,0.0535 -0.02587,0 -0.02587,-0.0535 -0.02587,-0.13393 l 0,-2.46412 c 0,-0.0804 0,-0.0804 0.02587,-0.0804 0.101764,0 1.218675,0 1.394107,0 0.535681,0.0804 0.629426,0.13394 0.65621,0.26788 0.05088,0.107 0.101764,0.26787 0.101764,0.26787 0,0.0804 0,0.0804 0.05088,0.0804 0.05088,0 0.07498,-0.0535 0.07498,-0.0535 0.05088,-0.13394 0.05088,-0.53568 0.05088,-0.66961 0.05088,-0.26788 0.101764,-0.40174 0.101764,-0.40174 0,-0.0535 0,-0.0535 -0.05088,-0.0535 -0.05088,0 -0.101764,0 -0.125894,0 -0.101763,0.0535 -0.227657,0.0535 -0.455329,0.0535 -0.174082,0.0535 -2.205666,0 -2.23111,0 -0.101764,0 -0.736562,0 -1.111539,0 -0.101764,0 -0.174083,0 -0.174083,0.0535 0,0.0804 0.07501,0.0804 0.07501,0.0804 0.101763,0 0.281232,0.0535 0.361584,0.0535 0.281232,0.0535 0.361583,0.13393 0.361583,0.53567 0.05088,0.26788 0.05088,0.53568 0.05088,1.98202 z"
       style="fill:#ffffff;fill-opacity:1;fill-rule:evenodd;stroke:none;stroke-width:0.19109249"
       inkscape:connector-curvature="0" />
    <path
       id="path45"
       d="m 95.076159,997.66409 c 0.589252,0 1.299029,-0.0535 1.699448,-0.26787 0.174082,-0.0535 0.174082,-0.10701 0.227657,-0.26787 0.125894,-0.40178 0.227658,-1.07136 0.227658,-1.20529 0,-0.0804 -0.05088,-0.13394 -0.101764,-0.13394 -0.05088,0 -0.101764,0.0535 -0.101764,0.13394 -0.02587,0.13393 -0.125893,0.53567 -0.361584,0.80351 -0.374977,0.40178 -0.830303,0.40178 -1.546777,0.40178 -2.028891,0 -3.397557,-1.56685 -3.397557,-3.29443 0,-0.93745 0.125893,-1.75436 0.830307,-2.38379 0.361583,-0.26788 0.937442,-0.66962 2.154777,-0.66962 0.816913,0 1.521333,0.26788 1.825331,0.53571 0.281232,0.13394 0.401761,0.53568 0.401761,0.93742 0,0.13394 0,0.26788 0.07501,0.26788 0.05088,0 0.101764,-0.0535 0.101764,-0.26788 0,-0.13394 0,-0.66958 0.05088,-0.93742 0,-0.26787 0,-0.40177 0,-0.53571 0,-0.0535 0,-0.10701 -0.101799,-0.10701 -0.30802,0 -0.602639,-0.0804 -0.937442,-0.13393 -0.48211,-0.0535 -1.017794,-0.13394 -1.419552,-0.13394 -1.445,0 -2.282003,0.40174 -2.864555,1.07135 -0.857091,0.80352 -1.071361,1.87487 -1.071361,2.50431 0,0.80351 0.20087,1.87487 1.138322,2.69181 0.763346,0.66958 1.699445,0.93742 3.144445,0.93742 z"
       style="fill:#ffffff;fill-opacity:1;fill-rule:evenodd;stroke:none;stroke-width:0.19109249"
       inkscape:connector-curvature="0" />
    <path
       id="path47"
       d="m 101.4659,991.04711 1.21867,0 c 0.88388,0.0284 1.07136,0.26787 1.11154,0.53568 l 0,0.0804 c 0.0509,0.13394 0.0509,0.13394 0.075,0.13394 0.0509,0 0.10176,-0.0535 0.10176,-0.10701 0,-0.13394 0.0509,-0.80352 0.0509,-1.07135 0,-0.0535 0,-0.10701 -0.0509,-0.10701 -0.0509,0 -0.12589,0.0535 -0.28123,0.0535 -0.1259,0 -0.36159,0.0535 -0.65621,0.0535 l -3.62522,0 c -0.101763,0 -0.455329,0 -0.709777,-0.0535 -0.281232,-0.0535 -0.361584,-0.13394 -0.401762,-0.13394 -0.05088,0 -0.125893,0.13394 -0.125893,0.13394 0,0.0804 -0.174083,0.93745 -0.174083,1.07139 0,0.0535 0,0.0535 0.02587,0.0535 0.05088,0 0.101764,0 0.101764,-0.0535 0.05088,-0.0804 0.05088,-0.13394 0.174083,-0.26787 0.125893,-0.26788 0.361587,-0.26788 0.937442,-0.26788 l 1.34456,0 0,3.83011 c 0,0.93745 0,1.62042 0,1.98202 -0.0509,0.26787 -0.12589,0.53567 -0.33481,0.53567 -0.075,0.0535 -0.17408,0.0535 -0.254441,0.0535 -0.05088,0 -0.05088,0.0535 -0.05088,0.107 0,0.0284 0,0.0804 0.125893,0.0804 0.28123,0 0.93744,-0.0804 0.93744,-0.0804 0.10177,0 0.683,0.0804 1.21868,0.0804 0.10176,0 0.12589,-0.0804 0.12589,-0.0804 0,-0.0535 0,-0.107 -0.075,-0.107 -0.0509,0 -0.30802,0 -0.40176,-0.0535 -0.30802,-0.0283 -0.36158,-0.13393 -0.36158,-0.53567 -0.0509,-0.40178 -0.0509,-1.07136 -0.0509,-1.98202 z"
       style="fill:#ffffff;fill-opacity:1;fill-rule:evenodd;stroke:none;stroke-width:0.19109249"
       inkscape:connector-curvature="0" />
    <path
       id="path49"
       d="m 113.45952,991.04711 c -0.12589,-0.26787 -0.22765,-0.40178 -0.28123,-0.40178 -0.0509,0 -0.12589,0.0535 -0.25444,0.40178 l -1.978,5.10236 0,0 c -0.1259,-0.40177 -1.11154,-3.72299 -1.24546,-4.31224 -0.10177,-0.40177 -0.17409,-0.66961 -0.17409,-0.80351 0,-0.13394 0.075,-0.13394 0.1259,-0.13394 0.075,-0.10701 0.22766,-0.10701 0.30802,-0.10701 0.0509,0 0.1018,0 0.1018,-0.0804 0,-0.0535 -0.0509,-0.0535 -0.17409,-0.0535 -0.45532,0 -0.85709,0 -0.99101,0 -0.0509,0 -0.58924,0 -1.11153,0 -0.0509,0 -0.1259,0 -0.1259,0.0535 0,0.0804 0.0259,0.0804 0.075,0.0804 0.0509,0 0.30802,0.0535 0.45533,0.10701 0.22766,0.0804 0.30802,0.13394 0.48212,0.66961 l 1.64855,5.42378 c 0.22766,0.66958 0.28123,0.66958 0.36159,0.66958 0.14729,0 0.20087,-0.0535 0.37497,-0.40174 0.30802,-0.80352 1.59767,-4.23188 1.90167,-5.04879 l 1.85078,5.04879 c 0.12589,0.40174 0.22766,0.40174 0.30802,0.40174 0.12589,0 0.17408,-0.10701 0.45533,-0.80352 0.36158,-1.07135 1.29903,-3.92386 1.749,-5.10236 0.17408,-0.53568 0.30802,-0.80352 0.56246,-0.93742 0.1473,0 0.33481,-0.0535 0.37498,-0.0535 0.0259,0 0.075,-0.0283 0.075,-0.0804 0,-0.0535 -0.075,-0.0535 -0.1259,-0.0535 -0.33481,0 -0.70978,0 -0.76334,0 -0.1259,0 -0.53569,0 -0.99101,0 -0.1259,0 -0.17409,0 -0.17409,0.0535 0,0.0535 0.0509,0.0804 0.075,0.0804 0.45533,0 0.5089,0.13394 0.5089,0.26787 0,0.13394 0,0.26788 -0.1259,0.53568 -0.3348,1.20529 -1.1651,3.85689 -1.39411,4.56669 l -0.0509,0 z"
       style="fill:#ffffff;fill-opacity:1;fill-rule:evenodd;stroke:none;stroke-width:0.19109249"
       inkscape:connector-curvature="0" />
    <path
       id="path51"
       d="m 120.66082,993.22731 c 0,-1.41956 0,-1.64722 0.0509,-1.98202 0,-0.26788 0.075,-0.40174 0.30802,-0.53568 0.075,-0.0535 0.17408,-0.0535 0.22766,-0.0535 0.0509,0 0.075,0 0.075,-0.0804 0,-0.0535 -0.0259,-0.0535 -0.12589,-0.0535 -0.30802,0 -0.93744,0 -0.99101,0 -0.0509,0 -0.65621,0 -0.93744,0 -0.1259,0 -0.17408,0 -0.17408,0.0535 0,0.0804 0.0509,0.0804 0.10176,0.0804 0.075,0 0.17408,0.0535 0.30802,0.0535 0.17408,0.0535 0.28123,0.13394 0.28123,0.53568 0,0.26787 0,0.53571 0,1.98202 l 0,1.62046 c 0,0.93742 0,1.59364 -0.0509,1.95523 0,0.26787 -0.0509,0.40174 -0.22766,0.53568 -0.10176,0 -0.22766,0.0535 -0.30802,0.0535 -0.0509,0 -0.0509,0 -0.0509,0.0535 0,0.0535 0.0509,0.0804 0.12589,0.0804 0.28124,0 0.88388,-0.0284 0.93745,-0.0284 0.0509,0 0.68299,0.0284 1.21867,0.0284 0.12589,0 0.12589,-0.0284 0.12589,-0.0804 0,-0.0535 0,-0.0535 -0.075,-0.0535 -0.0509,0 -0.28123,-0.0535 -0.40176,-0.0535 -0.28123,-0.0804 -0.33481,-0.26788 -0.36158,-0.53568 -0.0509,-0.40178 -0.0509,-1.07135 -0.0509,-1.95523 z"
       style="fill:#ffffff;fill-opacity:1;fill-rule:evenodd;stroke:none;stroke-width:0.19109249"
       inkscape:connector-curvature="0" />
    <path
       id="path53"
       d="m 126.01093,991.04711 1.27224,0 c 0.88388,0.0284 1.07137,0.26787 1.11154,0.53568 l 0,0.0804 c 0,0.13394 0.0509,0.13394 0.10177,0.13394 0.0259,0 0.075,-0.0535 0.075,-0.10701 0,-0.13394 0.0509,-0.80352 0.0509,-1.07135 0,-0.0535 0,-0.10701 -0.0509,-0.10701 -0.075,0 -0.12589,0.0535 -0.30802,0.0535 -0.1473,0 -0.36159,0.0535 -0.62943,0.0535 l -3.62522,0 c -0.075,0 -0.45533,0 -0.70978,-0.0535 -0.28123,-0.0535 -0.36158,-0.13394 -0.45532,-0.13394 -0.0509,0 -0.075,0.13394 -0.075,0.13394 0,0.0804 -0.17408,0.93745 -0.17408,1.07139 0,0.0535 0,0.0535 0.0259,0.0535 0.0509,0 0.10177,0 0.10177,-0.0535 0.0509,-0.0804 0.0509,-0.13394 0.17408,-0.26787 0.10176,-0.26788 0.36158,-0.26788 0.93744,-0.26788 l 1.34322,0 0,3.83011 c 0,0.93745 0,1.62042 0,1.98202 -0.0509,0.26787 -0.12589,0.53567 -0.30802,0.53567 -0.10176,0.0535 -0.17408,0.0535 -0.28123,0.0535 -0.075,0 -0.075,0.0535 -0.075,0.107 0,0.0284 0.0259,0.0804 0.17408,0.0804 0.25445,0 0.88387,-0.0804 0.93744,-0.0804 0.075,0 0.65621,0.0804 1.19189,0.0804 0.10177,0 0.1473,-0.0804 0.1473,-0.0804 0,-0.0535 0,-0.107 -0.0509,-0.107 -0.1018,0 -0.33481,0 -0.45533,-0.0535 -0.30802,-0.0283 -0.36159,-0.13393 -0.36159,-0.53567 -0.10176,-0.40178 -0.10176,-1.07136 -0.10176,-1.98202 z"
       style="fill:#ffffff;fill-opacity:1;fill-rule:evenodd;stroke:none;stroke-width:0.19109249"
       inkscape:connector-curvature="0" />
    <path
       id="path55"
       d="m 136.30563,993.22731 c 0,-1.41956 0,-1.64722 0,-1.98202 0.051,-0.26788 0.1017,-0.40174 0.33484,-0.53568 0.12579,-0.0535 0.17398,-0.0535 0.25441,-0.0535 0.051,0 0.051,0 0.051,-0.0804 0,-0.0535 -0.051,-0.0535 -0.12579,-0.0535 -0.28134,0 -0.91066,0 -0.93745,0 -0.051,0 -0.68297,0 -1.08475,0 -0.0751,0 -0.12579,0 -0.12579,0.0535 0,0.0804 0,0.0804 0.051,0.0804 0.0751,0 0.25441,0.0535 0.36159,0.0535 0.30791,0.0535 0.36159,0.13394 0.36159,0.53568 0,0.26787 0,0.53571 0,1.98202 l 0,0.26787 c 0,0.0535 0,0.0535 -0.051,0.0535 l -3.93191,0 c -0.0509,0 -0.0509,0 -0.0509,-0.0535 l 0,-0.26787 c 0,-1.39277 0,-1.64722 0,-1.98202 0,-0.26788 0.0509,-0.40174 0.33481,-0.53568 0.12589,-0.0535 0.17408,-0.0535 0.25444,-0.0535 0,0 0.0509,0 0.0509,-0.0804 0,-0.0535 -0.0509,-0.0535 -0.12589,-0.0535 -0.33481,0 -0.93744,0 -0.93744,0 -0.0509,0 -0.683,0 -1.08476,0 -0.12589,0 -0.17408,0 -0.17408,0.0535 0,0.0804 0.0509,0.0804 0.1018,0.0804 0.075,0 0.20087,0.0535 0.30802,0.0535 0.30802,0.0535 0.36158,0.13394 0.40176,0.53568 0,0.26787 0,0.53571 0,1.98202 l 0,1.62046 c 0,0.93742 0,1.59364 -0.0509,1.95523 -0.0509,0.26787 -0.075,0.40174 -0.25445,0.53568 -0.0509,0 -0.20087,0.0535 -0.28123,0.0535 -0.0509,0 -0.0509,0 -0.0509,0.0535 0,0.0535 0.0509,0.0804 0.12589,0.0804 0.28124,0 0.91066,-0.0284 0.96423,-0.0284 0,0 0.60264,0.0284 1.13832,0.0284 0.14729,0 0.17408,-0.0284 0.17408,-0.0804 0,-0.0535 -0.0259,-0.0535 -0.075,-0.0535 -0.10177,0 -0.30802,-0.0535 -0.45533,-0.0535 -0.25445,-0.0804 -0.30802,-0.26788 -0.3482,-0.53568 0,-0.40178 0,-1.07135 0,-1.92844 l 0,-0.93746 c 0,-0.0283 0,-0.0283 0.0509,-0.0283 l 3.93053,0 c 0.051,0 0.051,0 0.051,0.0283 l 0,0.93746 c 0,0.80351 0,1.56685 0,1.92844 -0.051,0.26787 -0.1017,0.40174 -0.30792,0.53568 -0.051,0 -0.17397,0.0535 -0.28134,0.0535 -0.051,0 -0.051,0 -0.051,0.0535 0,0.0535 0.051,0.0804 0.1474,0.0804 0.25441,0 0.88388,-0.0284 0.93745,-0.0284 0.0248,0 0.65619,0.0284 1.13833,0.0284 0.1474,0 0.17397,-0.0284 0.17397,-0.0804 0,-0.0535 -0.0248,-0.0535 -0.0751,-0.0535 -0.1017,0 -0.30792,-0.0535 -0.40178,-0.0535 -0.30791,-0.0804 -0.30791,-0.26788 -0.3616,-0.53568 -0.051,-0.40178 -0.051,-1.07135 -0.051,-1.95523 z"
       style="fill:#ffffff;fill-opacity:1;fill-rule:evenodd;stroke:none;stroke-width:0.19109249"
       inkscape:connector-curvature="0" />
    <path
       id="path57"
       d="m 144.19155,995.91508 c 0,0.13394 0,0.53572 -0.051,0.93746 0,0.26787 -0.051,0.40177 -0.28134,0.53567 -0.0751,0 -0.17397,0.0535 -0.25441,0.0535 -0.051,0 -0.10169,0 -0.10169,0.0535 0,0.0535 0.051,0.0804 0.12579,0.0804 0.33484,0 0.9642,-0.0283 0.99099,-0.0283 0.051,0 0.68301,0.0283 1.21869,0.0283 0.0751,0 0.12578,-0.0283 0.12578,-0.0804 0,-0.0535 0,-0.0535 -0.0751,-0.0535 -0.1017,0 -0.28134,-0.0535 -0.40174,-0.0535 -0.28134,-0.0804 -0.3616,-0.26787 -0.40178,-0.53567 0,-0.40174 0,-0.80352 0,-0.93746 l 0,-0.80351 c 0,-0.26788 -0.051,-0.53568 0.12579,-0.93742 0.12578,-0.40178 1.52132,-2.55788 1.79989,-2.91947 0.22784,-0.26788 0.30791,-0.40178 0.4821,-0.40178 0.17398,-0.10701 0.33485,-0.13394 0.45532,-0.13394 0.051,0 0.12579,-0.0283 0.12579,-0.0804 0,-0.0535 -0.0751,-0.0535 -0.12579,-0.0535 -0.17398,0 -0.88384,0 -0.93742,0 -0.051,0 -0.40177,0 -0.62943,0 -0.12579,0 -0.17398,0 -0.17398,0.0535 0,0.0535 0.051,0.0804 0.17398,0.13394 0.10169,0 0.10169,0.10701 0.10169,0.26787 0,0.13394 0,0.26788 -0.1474,0.53568 -0.17398,0.26787 -1.34458,2.23646 -1.5468,2.63824 l -1.74897,-2.8659 c -0.051,-0.13393 -0.1474,-0.26787 -0.1474,-0.40177 0,-0.0804 0.10169,-0.13394 0.1474,-0.13394 0.0751,-0.0535 0.17397,-0.0804 0.17397,-0.13394 0,-0.0535 -0.051,-0.0535 -0.12578,-0.0535 -0.40174,0 -0.76334,0 -0.81691,0 -0.051,0 -0.76334,0 -0.93742,0 -0.10169,0 -0.1474,0 -0.1474,0.0535 0,0.0804 0.051,0.0804 0.10169,0.0804 0.10169,0 0.28134,0.0535 0.40174,0.13393 0.17398,0.13394 0.40178,0.26788 0.62943,0.66962 0.30792,0.53567 1.59768,2.5043 1.64856,2.63824 0.17398,0.26787 0.22784,0.40174 0.22784,0.93741 z"
       style="fill:#ffffff;fill-opacity:1;fill-rule:evenodd;stroke:none;stroke-width:0.19109249"
       inkscape:connector-curvature="0" />
    <path
       id="path59"
       d="m 148.07108,994.08978 c 0,1.64722 1.16511,3.57566 3.70155,3.57566 2.33288,0 3.80335,-1.70079 3.80335,-3.72299 0,-2.12931 -1.59768,-3.46854 -3.70155,-3.46854 -2.6369,0 -3.80335,2.12935 -3.80335,3.62923 z m 1.04456,-0.26787 c 0,-1.98202 1.11154,-2.98641 2.66234,-2.98641 1.52135,0 2.84046,1.2053 2.84046,3.40158 0,2.63824 -1.69944,3.09355 -2.50966,3.09355 -1.74901,0 -2.99179,-1.33919 -2.99179,-3.49533 z"
       style="fill:#ffffff;fill-opacity:1;fill-rule:evenodd;stroke:none;stroke-width:0.19109249"
       inkscape:connector-curvature="0" />
    <path
       id="path61"
       d="m 157.37694,994.62142 c 0,1.33923 0.36156,1.92845 0.81691,2.35701 0.70976,0.66961 1.69944,0.66961 2.00345,0.66961 0.53568,0 1.24544,-0.0535 1.97798,-0.66961 0.76334,-0.66961 0.88388,-1.78115 0.88388,-2.75875 l 0,-0.93745 c 0,-1.41956 -0.051,-1.64721 0,-1.98202 0,-0.26788 0.051,-0.40178 0.30791,-0.53568 0.14741,-0.0535 0.17398,-0.0535 0.28134,-0.0535 0,0 0.051,0 0.051,-0.0804 0,-0.0535 -0.051,-0.0535 -0.1474,-0.0535 -0.25441,0 -0.7098,0 -0.79013,0 -0.051,0 -0.58925,0 -1.0446,0 -0.0751,0 -0.12579,0 -0.12579,0.0535 0,0.0804 0,0.0804 0.051,0.0804 0.0751,0 0.25441,0.0535 0.3483,0.0535 0.30792,0.0535 0.3616,0.26788 0.3616,0.53568 0,0.26787 0,0.53568 0,1.98202 l 0,1.20529 c 0,0.93742 -0.051,1.70079 -0.53568,2.23646 -0.28134,0.40174 -0.85709,0.66958 -1.44499,0.66958 -0.53568,0 -0.93746,-0.0535 -1.41956,-0.53567 -0.40178,-0.40174 -0.73655,-0.93742 -0.73655,-2.23647 l 0,-1.33919 c 0,-1.41956 0,-1.64721 0.051,-1.98202 0,-0.26788 0.10169,-0.40178 0.33484,-0.53568 0.12579,-0.0535 0.17398,-0.0535 0.25441,-0.0535 0.051,0 0.10169,0 0.10169,-0.0804 0,-0.0535 -0.051,-0.0535 -0.17397,-0.0535 -0.28134,0 -0.91067,0 -0.99103,0 -0.051,0 -0.6294,0 -1.07136,0 -0.10169,0 -0.2009,0 -0.2009,0.0535 0,0.0804 0.10169,0.0804 0.10169,0.0804 0.10169,0 0.28134,0.0535 0.3616,0.0535 0.28133,0.0535 0.36159,0.26788 0.36159,0.53568 0.051,0.26787 0.051,0.53568 0.051,1.98202 z"
       style="fill:#ffffff;fill-opacity:1;fill-rule:evenodd;stroke:none;stroke-width:0.19109249"
       inkscape:connector-curvature="0" />
    <path
       id="path63"
       d="m 165.69379,994.85043 c 0,0.93745 0,1.59367 -0.051,1.95523 -0.0248,0.26787 -0.0751,0.40177 -0.25441,0.53567 -0.051,0 -0.17397,0.0535 -0.28133,0.0535 -0.051,0 -0.0751,0 -0.0751,0.0535 0,0.0535 0.0751,0.0804 0.17397,0.0804 0.25441,0 0.88388,-0.0283 0.93746,-0.0283 0,0 0.60264,0.0283 1.16511,0.0283 0.12578,0 0.12578,-0.0283 0.12578,-0.0804 0,-0.0535 0,-0.0535 -0.051,-0.0535 -0.0751,0 -0.30791,-0.0535 -0.45531,-0.0535 -0.30792,-0.0804 -0.3616,-0.26787 -0.37499,-0.53567 -0.051,-0.40174 -0.051,-1.07136 -0.051,-1.92845 l 0,-0.26787 c 0,-0.0535 0.051,-0.0535 0.0751,-0.0535 l 1.21865,0 c 0.0751,0 0.0751,0 0.12579,0.0535 0.22783,0.26787 0.62943,0.80351 1.04457,1.33919 0.53567,0.66962 0.88387,1.20529 1.29904,1.36602 0.22784,0.13393 0.45532,0.13393 0.991,0.13393 l 0.58925,0 c 0.17397,0 0.22783,-0.0283 0.22783,-0.0804 0,-0.0535 0,-0.0535 -0.051,-0.0535 -0.051,0 -0.17398,0 -0.3616,-0.0535 -0.22783,-0.0283 -0.56246,-0.13393 -1.04456,-0.66961 -0.53568,-0.53568 -1.21869,-1.39277 -2.00346,-2.38376 0.88388,-0.66961 1.16511,-1.36602 1.16511,-2.04899 0,-0.66961 -0.40174,-1.07135 -0.62943,-1.20529 -0.50889,-0.40178 -1.16508,-0.40178 -1.74898,-0.40178 -0.36159,0 -1.11153,0 -1.24547,0 -0.051,0 -0.68297,0 -1.11154,0 -0.10169,0 -0.1474,0 -0.1474,0.0535 0,0.0804 0.051,0.0804 0.10169,0.0804 0.0751,0 0.22784,0.0535 0.30792,0.0535 0.33484,0.0535 0.36159,0.13393 0.40177,0.53567 0,0.26788 0,0.53568 0,1.98202 z m 0.81691,-3.77653 c 0,-0.0804 0.051,-0.0804 0.0751,-0.13394 0.10169,0 0.40177,-0.0535 0.73658,-0.0535 1.01778,0 1.59764,0.66961 1.59764,1.79454 0,0.66961 -0.22783,1.20529 -0.53568,1.41956 -0.22783,0.13393 -0.50889,0.13393 -0.70976,0.13393 -0.45531,0 -0.93745,-0.0535 -1.08475,-0.13393 -0.0248,-0.0283 -0.0751,-0.0804 -0.0751,-0.13394 z"
       style="fill:#ffffff;fill-opacity:1;fill-rule:evenodd;stroke:none;stroke-width:0.19109249"
       inkscape:connector-curvature="0" />
    <path
       id="path65"
       d="m 173.37678,997.66409 c 0.56246,0 1.13832,-0.0535 1.52135,-0.26787 0.68297,-0.40178 0.91063,-1.07135 0.91063,-1.55346 0,-0.80355 -0.40174,-1.44634 -1.5722,-2.20971 l -0.28134,-0.13394 c -0.93745,-0.66961 -1.24547,-0.93745 -1.24547,-1.56688 0,-0.66958 0.58925,-1.07136 1.29905,-1.07136 0.81691,0 1.16507,0.40178 1.21865,0.53568 0.051,0.10701 0.12578,0.40178 0.17397,0.40178 0,0.0804 0,0.13393 0.051,0.13393 0.0751,0 0.0751,-0.0804 0.0751,-0.26787 0,-0.66958 0.051,-0.93742 0.051,-0.93742 0,-0.0535 0,-0.0535 -0.1017,-0.0535 -0.0751,0 -0.12578,0 -0.36159,-0.0535 -0.22748,-0.0535 -0.60261,-0.13393 -0.99099,-0.13393 -1.24547,0 -2.07978,0.66961 -2.07978,1.78115 0,0.66961 0.34831,1.20529 1.36867,1.92844 l 0.40174,0.26788 c 0.85709,0.66961 1.21869,0.93745 1.21869,1.62046 0,0.66958 -0.50889,1.20525 -1.445,1.20525 -0.60264,0 -1.34458,-0.26787 -1.47044,-0.93741 -0.051,-0.13394 -0.051,-0.26788 -0.051,-0.40178 0,-0.0804 -0.0248,-0.0804 -0.0751,-0.0804 -0.051,0 -0.051,0.0283 -0.051,0.13393 -0.051,0.13394 -0.10169,0.53568 -0.10169,0.93746 0,0.26787 0,0.26787 0.1474,0.40174 0.40174,0.13393 0.93741,0.26787 1.36863,0.26787 z"
       style="fill:#ffffff;fill-opacity:1;fill-rule:evenodd;stroke:none;stroke-width:0.19109249"
       inkscape:connector-curvature="0" />
    <path
       id="path67"
       d="m 178.21988,994.87587 c 0,0.80355 0,1.56688 -0.051,1.98202 -0.051,0.26787 -0.0751,0.40177 -0.25441,0.53567 -0.10169,0 -0.17397,0.0535 -0.28134,0.0535 -0.10169,0 -0.10169,0 -0.10169,0.0535 0,0.0535 0.10169,0.0804 0.1474,0.0804 0.17398,0 0.40174,-0.0283 0.58925,-0.0283 0.17398,0 0.34831,0 0.40174,0 0.17398,0 0.37499,0 0.79013,0 0.40177,0.0283 0.93745,0.0804 1.674,0.0804 0.36159,0 0.42856,0 0.48213,-0.26787 0.1017,-0.13394 0.17398,-0.80355 0.17398,-0.93746 0,-0.0283 -0.0535,-0.13393 -0.0751,-0.13393 -0.0535,0 -0.10169,0.0535 -0.10169,0.13393 -0.10169,0.40174 -0.17398,0.53568 -0.45532,0.66962 -0.2009,0.13394 -0.65622,0.13394 -0.93745,0.13394 -0.93745,0 -1.11153,-0.13394 -1.11153,-0.80352 -0.051,-0.13394 0,-1.20529 0,-1.52671 l 0,-0.80351 c 0,-0.0284 0,-0.0804 0.051,-0.0804 0.17398,0 1.16511,0 1.41956,0.0535 0.37498,0.0284 0.45535,0.13394 0.50888,0.26787 0.051,0.13394 0.051,0.26788 0.051,0.26788 0,0.0283 0,0.0804 0.0751,0.0804 0.051,0 0.051,-0.0804 0.051,-0.13394 0,-0.0535 0.051,-0.40174 0.051,-0.53567 0.0248,-0.26788 0.0751,-0.53568 0.0751,-0.53568 0,-0.0535 0,-0.0535 -0.0535,-0.0535 -0.0248,0 -0.0751,0.0535 -0.12579,0.107 -0.12579,0.0804 -0.25441,0.0804 -0.48214,0.13394 -0.22783,0.0535 -1.47043,0.0535 -1.5722,0.0535 -0.051,0 -0.051,-0.0535 -0.051,-0.13393 l 0,-2.46412 c 0,-0.0804 0,-0.0804 0.051,-0.0804 0.10169,0 1.21865,0 1.34455,0 0.53567,0.0804 0.62943,0.13394 0.70979,0.26788 0.051,0.107 0.051,0.26787 0.051,0.26787 0,0.0804 0,0.0804 0.051,0.0804 0.0751,0 0.0751,-0.0535 0.12579,-0.0535 0,-0.13394 0,-0.53568 0.0535,-0.66961 0,-0.26788 0.0248,-0.40174 0.0248,-0.40174 0,-0.0535 0,-0.0535 -0.0248,-0.0535 -0.0535,0 -0.0535,0 -0.10169,0 -0.0751,0.0535 -0.25441,0.0535 -0.42853,0.0535 -0.22784,0.0535 -2.20567,0 -2.282,0 -0.051,0 -0.68301,0 -1.13832,0 -0.0751,0 -0.12579,0 -0.12579,0.0535 0,0.0804 0.051,0.0804 0.1017,0.0804 0.0248,0 0.22783,0.0535 0.30791,0.0535 0.30791,0.0535 0.36159,0.13393 0.40177,0.53567 0,0.26788 0,0.53568 0,1.98202 z"
       style="fill:#ffffff;fill-opacity:1;fill-rule:evenodd;stroke:none;stroke-width:0.19109249"
       inkscape:connector-curvature="0" />
    <path
       id="path69"
       d="m 185.01527,993.27822 c 0,-1.44634 0,-1.70078 0,-1.98202 0.0482,-0.40177 0.10169,-0.53567 0.36155,-0.53567 0.1017,-0.0535 0.28134,-0.0535 0.33485,-0.0535 0.0283,0 0.0751,0 0.0751,-0.0804 0,-0.0535 -0.0751,-0.0535 -0.17397,-0.0535 -0.28134,0 -0.99099,0 -1.04457,0 -0.0283,0 -0.60264,0 -1.07135,0 -0.0751,0 -0.12579,0 -0.12579,0.0535 0,0.0804 0.0535,0.0804 0.0535,0.0804 0.0751,0 0.25441,0.0535 0.3616,0.0535 0.30791,0.0535 0.36156,0.13393 0.36156,0.53567 0.0482,0.26788 0.0482,0.53568 0.0482,1.98202 l 0,1.59364 c 0,0.80352 0,1.56685 -0.0482,1.98202 -0.0482,0.26788 -0.1017,0.40178 -0.28134,0.53568 -0.0751,0 -0.17398,0.0535 -0.25441,0.0535 -0.10169,0 -0.10169,0 -0.10169,0.0535 0,0.0535 0.0535,0.0804 0.17397,0.0804 0.1017,0 0.30792,-0.0284 0.50889,-0.0284 0.17398,0 0.3616,0 0.37499,0 0.28134,0 0.62943,0 1.04457,0 0.45535,0.0284 0.99103,0.0804 1.64856,0.0804 0.53567,0 0.58925,-0.0804 0.62943,-0.26788 0.0482,-0.26787 0.12579,-0.80351 0.12579,-0.93745 0,-0.13394 -0.0482,-0.13394 -0.0751,-0.13394 -0.0482,0 -0.0482,0.0535 -0.0482,0.13394 -0.0482,0.13394 -0.12579,0.40178 -0.22783,0.53571 -0.25441,0.26788 -0.7098,0.26788 -1.1919,0.26788 -0.73658,0 -1.08475,-0.0804 -1.27226,-0.26788 -0.12579,-0.13393 -0.17398,-0.66961 -0.17398,-2.04899 z"
       style="fill:#ffffff;fill-opacity:1;fill-rule:evenodd;stroke:none;stroke-width:0.19109249"
       inkscape:connector-curvature="0" />
    <path
       id="path71"
       d="m 189.9344,994.87587 c 0,0.80355 0,1.56688 -0.0751,1.98202 0,0.26787 -0.0482,0.40177 -0.22784,0.53567 -0.10169,0 -0.22783,0.0535 -0.33484,0.0535 -0.0283,0 -0.0751,0 -0.0751,0.0535 0,0.0535 0.0482,0.0804 0.17398,0.0804 0.30791,0 0.88384,-0.0283 0.93741,-0.0283 0.0482,0 0.65622,0.0283 1.21869,0.0283 0.0751,0 0.12579,-0.0283 0.12579,-0.0804 0,-0.0535 0,-0.0535 -0.1017,-0.0535 -0.0751,0 -0.25441,-0.0535 -0.40174,-0.0535 -0.25441,-0.0804 -0.30791,-0.26787 -0.36159,-0.53567 -0.0283,-0.40174 -0.0283,-1.07136 -0.0283,-1.98202 l 0,-0.80352 c 0,-0.0284 0,-0.0804 0.0751,-0.0804 0.12579,0 1.27222,0 1.52132,0.0535 0.28134,0.0283 0.40177,0.13394 0.45531,0.26788 0.0482,0.107 0.0482,0.26787 0.0482,0.40177 0,0.0535 0.0284,0.10701 0.0751,0.10701 0.0482,0 0.10169,-0.10701 0.10169,-0.13394 0,-0.10701 0,-0.40177 0,-0.66961 0.0283,-0.26788 0.12579,-0.40174 0.12579,-0.53568 0,0 -0.0482,-0.0535 -0.0482,-0.0535 -0.0751,0 -0.0751,0.0535 -0.12578,0.107 -0.1017,0.13394 -0.22784,0.13394 -0.45532,0.13394 -0.12579,0 -0.25441,0 -0.42856,0 l -1.27223,0 c -0.0751,0 -0.0751,-0.0535 -0.0751,-0.10701 l 0,-2.5043 c 0,-0.0804 0,-0.0804 0.0751,-0.0804 l 1.52267,0 c 0.40177,0 0.62943,0.13393 0.68301,0.26787 0.0283,0.10701 0.0751,0.26788 0.0751,0.26788 0,0.0804 0,0.0804 0.0482,0.0804 0.0482,0 0.0751,-0.0535 0.0751,-0.0535 0.0482,-0.13393 0.0482,-0.53567 0.0482,-0.66957 0.0482,-0.26788 0.10169,-0.40178 0.10169,-0.40178 0,-0.0535 -0.0482,-0.0535 -0.10169,-0.0535 0,0 -0.0482,0 -0.12579,0.0535 -0.0482,0 -0.22783,0 -0.40174,0 -0.22783,0.0535 -2.28199,0 -2.46012,0 -0.0482,0 -0.62943,0 -1.07135,0 -0.1474,0 -0.17398,0 -0.17398,0.0535 0,0.0804 0.0283,0.0804 0.0751,0.0804 0.10169,0 0.22748,0.0535 0.3616,0.0535 0.33484,0.0535 0.36156,0.13394 0.40174,0.53568 0,0.26787 0,0.53568 0,2.0222 z"
       style="fill:#ffffff;fill-opacity:1;fill-rule:evenodd;stroke:none;stroke-width:0.19109249"
       inkscape:connector-curvature="0" />
    <path
       id="path73"
       d="m 202.81567,1011.7539 c -1.07135,0 -1.97801,0.9374 -1.97801,1.9284 0,0.4018 0.10169,0.6696 0.28133,0.9374 -2.73865,2.7186 -6.16167,4.165 -9.93954,4.165 -0.53568,0 -1.07135,0 -1.64856,-0.054 -3.11899,-0.4018 -6.08535,-1.3392 -8.49458,-2.2365 0.76337,0.134 1.52135,0.4018 2.28203,0.5357 l 0.76333,0.1339 c 1.57221,0.2679 3.32122,0.6696 5.02066,0.6696 0.88388,0 1.69944,-0.107 2.40923,-0.2678 1.39412,-0.4018 2.68778,-1.366 3.34666,-2.5847 0.58925,-1.0713 0.70979,-2.1829 0.40177,-3.348 -0.65622,-2.2365 -2.50965,-3.9239 -4.96977,-4.5131 -0.30791,-0.107 -0.70979,-0.1339 -1.07139,-0.1339 -1.8253,0 -3.75243,0.8035 -4.61487,2.0489 -0.53568,0.6697 -0.65622,1.6205 -0.42856,2.4642 0.2544,0.9374 0.93745,1.7543 1.95257,2.2097 0.58925,0.2679 1.445,0.4017 2.20567,0.4017 1.59768,0 2.48556,-0.6696 2.5351,-1.8481 0.0482,-0.6696 -0.12579,-1.2053 -0.53568,-1.5668 -0.40174,-0.4018 -1.07135,-0.6696 -1.74898,-0.6696 -0.25441,-0.5357 -0.70979,-0.8036 -1.24547,-0.8036 -0.70979,0 -1.34458,0.5357 -1.34458,1.3393 0,0.6695 0.58926,1.3391 1.34458,1.3391 0.76334,0 1.34323,-0.6696 1.34323,-1.3391 0,-0.054 0,-0.054 0,-0.081 0.0284,0 0.12579,0 0.17398,0 0.81691,0 1.01778,0.6696 1.07136,0.9375 0.10169,0.8035 -0.30792,1.7811 -1.11154,2.0088 -0.28134,0.107 -0.53568,0.1339 -0.85709,0.1339 -1.31241,0 -2.89134,-0.9374 -3.06812,-2.357 -0.1474,-1.5668 1.1919,-2.6918 2.40924,-3.1739 0.65622,-0.2678 1.41956,-0.4018 2.15476,-0.4018 1.59767,0 3.04267,0.6697 3.93059,1.9553 1.11153,1.5669 1.39408,3.2677 0.76333,4.6604 -0.88388,2.0088 -2.63689,2.9998 -5.37555,2.9998 -1.41955,0 -2.94091,-0.2679 -4.33633,-0.5357 -2.81502,-0.5356 -5.27379,-1.2052 -7.50625,-1.8748 l -2.33288,-1.0714 c -3.57569,-1.5267 -7.73391,-3.04 -11.99392,-3.04 -0.53568,0 -1.16511,0 -1.69944,0.053 -3.34665,0.4018 -5.80677,2.1561 -8.36734,4.3926 0.2009,-0.6696 0.28134,-1.4463 0.22783,-2.2365 -0.12579,-2.2766 -1.95257,-4.6202 -4.23457,-5.33 -0.76333,-0.2679 -1.62312,-0.4017 -2.38379,-0.4017 -1.77442,0 -3.06812,0.6695 -3.62654,1.9552 -0.42857,1.0713 -0.40178,2.2097 0.10169,3.0935 0.40177,0.8036 1.16511,1.3928 2.10522,1.5937 0.22783,0.053 0.42856,0.053 0.65622,0.053 1.04457,0 2.0289,-0.4018 2.46012,-1.0714 0.33484,-0.4017 0.40174,-0.9374 0.22783,-1.4463 0.22784,-0.2679 0.30792,-0.5357 0.30792,-0.9375 0,-0.8035 -0.60265,-1.3392 -1.36868,-1.3392 -0.76333,0 -1.39411,0.5357 -1.39411,1.3392 0,0.8035 0.62943,1.3928 1.39411,1.3928 0.12579,0 0.22784,0 0.30792,-0.053 0,0.4018 -0.12579,0.6696 -0.45532,0.9374 -0.60264,0.5357 -1.13832,0.8036 -1.69944,0.8036 -0.42856,0 -0.8303,-0.134 -1.24547,-0.5357 -0.83031,-0.9375 -1.07136,-2.1829 -0.65622,-3.1739 0.58925,-1.3392 1.69947,-2.1026 3.22079,-2.1026 1.95254,0 3.98144,1.3392 4.81713,3.04 0.81691,1.7544 0.76333,3.4552 -0.17398,5.0488 -1.16511,2.049 -3.70155,3.5489 -6.44021,3.8034 -0.40177,0 -0.81691,0.053 -1.16511,0.053 -3.11899,0 -6.26347,-1.0714 -9.25522,-2.1026 -2.99179,-1.0714 -6.08535,-2.1026 -9.20435,-2.1026 -0.73656,0 -1.39411,0.054 -2.02889,0.134 1.749,-0.8035 3.85422,-0.9375 5.90856,-0.9375 2.23111,-0.08 4.61488,-0.1339 6.4911,-1.2052 2.10526,-1.0714 3.27168,-3.3481 3.04267,-5.6783 -0.22783,-1.9284 -1.39411,-3.4551 -3.22076,-4.031 -0.051,-0.8035 -0.70979,-1.4195 -1.52135,-1.4195 -0.81691,0 -1.47044,0.6696 -1.47044,1.5267 0,0.8035 0.65622,1.4731 1.47044,1.4731 0.62943,0 1.16511,-0.4018 1.39411,-0.9374 1.1919,0.4017 2.05434,1.4195 2.40924,2.7185 0.40174,1.6205 -0.051,3.3748 -1.21869,4.6203 -1.52131,1.6204 -3.70155,1.982 -5.85766,2.1561 -0.53568,0.08 -1.11154,0.08 -1.69945,0.1339 -0.88388,0.053 -1.77444,0.107 -2.63689,0.134 2.50966,-0.9375 4.96978,-1.8749 4.74211,-5.1962 -0.17408,-2.1293 -1.92711,-3.2408 -3.62656,-3.2408 -0.88387,0 -1.64855,0.2679 -2.05433,0.8035 -0.36159,0.4018 -0.48212,1.0714 -0.30802,1.7544 -0.36159,0.2679 -0.56247,0.5357 -0.56247,0.9374 0,0.6696 0.56247,1.0714 1.16511,1.0714 0.62942,0 1.16511,-0.5357 1.16511,-1.0714 0,-0.5357 -0.40177,-1.0714 -0.93745,-1.2053 -0.075,-0.4017 0.0509,-0.9374 0.30802,-1.2053 0.37498,-0.4017 0.96423,-0.6696 1.57222,-0.6696 0.70978,0 1.64856,0.4018 2.05434,1.3393 0.33481,0.8035 0.40176,1.6472 0.17409,2.4105 -0.48211,1.6472 -1.59767,2.6918 -3.65067,3.4016 -0.28123,0.107 -0.53568,0.1339 -0.81691,0.2679 -1.16511,0.4017 -2.33289,0.8035 -3.29578,1.3659 -0.99101,-0.6695 -2.15478,-1.0713 -3.27167,-1.3659 -0.28123,-0.1071 -0.58925,-0.134 -0.81692,-0.2679 -2.10522,-0.6696 -3.22078,-1.7544 -3.70155,-3.4016 -0.22766,-0.8035 -0.1473,-1.6204 0.17408,-2.4105 0.42855,-0.9375 1.34322,-1.3393 2.05434,-1.3393 0.60264,0 1.24546,0.2679 1.57222,0.6696 0.25445,0.2679 0.37498,0.8036 0.30802,1.2053 -0.53568,0.134 -0.88387,0.5357 -0.88387,1.2053 0,0.6696 0.48211,1.0714 1.11154,1.0714 0.65621,0 1.1651,-0.5357 1.1651,-1.0714 0,-0.4017 -0.20087,-0.8035 -0.50889,-0.9374 0.12589,-0.6696 0.0509,-1.3392 -0.30802,-1.7544 -0.45533,-0.5357 -1.16511,-0.8035 -2.05434,-0.8035 -1.69945,0 -3.49934,1.0714 -3.62656,3.2408 -0.28123,3.3213 2.23111,4.3123 4.74212,5.1962 -0.91066,-0.081 -1.79989,-0.134 -2.63689,-0.134 -0.58925,-0.053 -1.16511,-0.053 -1.749,-0.1339 -2.15478,-0.1339 -4.33634,-0.5357 -5.85767,-2.1561 -1.11154,-1.2053 -1.57223,-2.9865 -1.16511,-4.6203 0.30802,-1.3392 1.16511,-2.3034 2.40923,-2.7185 0.22765,0.5356 0.76334,0.9374 1.34322,0.9374 0.85708,0 1.52133,-0.6696 1.52133,-1.4731 0,-0.8036 -0.65621,-1.5267 -1.52133,-1.5267 -0.76335,0 -1.41956,0.6696 -1.47045,1.4195 -1.82533,0.5357 -3.04267,2.1026 -3.22078,4.031 -0.28123,2.3302 0.93744,4.5667 2.99178,5.7318 1.92711,1.0714 4.26,1.0714 6.542,1.2053 2.00345,0.053 4.10734,0.1339 5.85767,0.9374 -0.62942,-0.08 -1.29902,-0.1339 -1.978,-0.1339 -3.119,0 -6.21256,1.0714 -9.20434,2.1026 -3.04267,1.0713 -6.13622,2.1025 -9.25522,2.1025 -0.40177,0 -0.763349,-0.054 -1.165111,-0.054 -2.738668,-0.2679 -5.27378,-1.7544 -6.491116,-3.8034 -0.88387,-1.5936 -0.937442,-3.2944 -0.125893,-5.0487 0.790129,-1.7544 2.864555,-3.04 4.817112,-3.04 1.470444,0 2.585998,0.8035 3.220778,2.1025 0.40176,0.9375 0.1259,2.2365 -0.70977,3.1739 -0.361588,0.4018 -0.76335,0.5357 -1.245463,0.5357 -0.508897,0 -1.084755,-0.2679 -1.699448,-0.8035 -0.281232,-0.2679 -0.401761,-0.5357 -0.455329,-0.9375 0.125894,0.053 0.227657,0.053 0.361584,0.053 0.763345,0 1.343222,-0.6696 1.343222,-1.3927 0,-0.8035 -0.589249,-1.3392 -1.343222,-1.3392 -0.763346,0 -1.419555,0.5357 -1.419555,1.3392 0,0.4017 0.125893,0.6696 0.308019,0.8035 -0.174082,0.5357 -0.101763,1.0713 0.227658,1.5267 0.482113,0.6696 1.470444,1.0713 2.460115,1.0713 0.227657,0 0.482113,0 0.709777,-0.053 0.883872,-0.2678 1.648562,-0.8035 2.105232,-1.5936 0.45532,-0.9374 0.48211,-2.049 0.0509,-3.0936 -0.56247,-1.3392 -1.799889,-1.9552 -3.626563,-1.9552 -0.763345,0 -1.572222,0.134 -2.332889,0.4018 -2.282003,0.6696 -4.107334,3.0399 -4.285449,5.33 -0.05088,0.8035 0.02587,1.5267 0.227657,2.2364 -2.560553,-2.2364 -5.020668,-4.0309 -8.367336,-4.3925 -0.535681,-0.053 -1.111539,-0.053 -1.699448,-0.053 -4.209112,0 -8.418225,1.5267 -11.943008,3.0399 l -2.332888,1.0714 c -2.231111,0.6696 -4.691226,1.3392 -7.504892,1.8749 -1.445,0.2679 -2.915444,0.5357 -4.387227,0.5357 -2.68778,0 -4.438117,-0.9375 -5.375559,-2.9998 -0.629426,-1.3392 -0.361584,-3.0936 0.763345,-4.6605 0.937443,-1.2052 2.332893,-1.9552 3.930559,-1.9552 0.736562,0 1.495889,0.134 2.205667,0.4018 1.165106,0.5357 2.509668,1.5936 2.358336,3.1739 -0.125893,1.4731 -1.699448,2.357 -3.068114,2.357 -0.281232,0 -0.589248,-0.028 -0.816913,-0.134 -0.816913,-0.2678 -1.272242,-1.2052 -1.111539,-2.0088 0,-0.2678 0.227657,-0.9374 1.071365,-0.9374 0.05088,0 0.101764,0 0.125894,0 0,0.028 0,0.028 0,0.08 0,0.6696 0.629426,1.3392 1.344561,1.3392 0.763345,0 1.343218,-0.6696 1.343218,-1.3392 0,-0.8035 -0.589248,-1.3392 -1.343218,-1.3392 -0.482113,0 -0.99101,0.2679 -1.191891,0.8035 -0.682994,0 -1.344561,0.2679 -1.748998,0.6696 -0.401761,0.4018 -0.589252,0.9375 -0.589252,1.5669 0.05088,1.2053 0.99101,1.8481 2.586002,1.8481 0.763345,0 1.623114,-0.2679 2.205666,-0.4018 0.964226,-0.4017 1.699448,-1.2052 1.952557,-2.2097 0.227658,-0.8035 0.05088,-1.7275 -0.482113,-2.4641 -0.85709,-1.2053 -2.738668,-2.049 -4.564003,-2.049 -0.401758,0 -0.763345,0.053 -1.071361,0.134 -2.509665,0.5356 -4.361783,2.2766 -4.969779,4.5131 -0.361584,1.2053 -0.174083,2.2766 0.401761,3.348 0.65621,1.2053 1.927113,2.1829 3.346664,2.5846 0.709778,0.2679 1.521337,0.2679 2.409226,0.2679 1.648559,0 3.448446,-0.4018 4.969783,-0.6696 l 0.816913,-0.1339 c 0.709777,-0.134 1.521333,-0.2679 2.282,-0.5357 -2.460115,0.9374 -5.426448,1.8749 -8.545451,2.2364 -0.535681,0.053 -1.084756,0.053 -1.648559,0.053 -3.727,0 -7.175446,-1.4463 -9.939559,-4.1515 0.174083,-0.2679 0.281233,-0.6696 0.281233,-0.9374 0,-1.0714 -0.857091,-1.9285 -1.927113,-1.9285 -1.111539,0 -1.978002,0.9375 -1.978002,1.9285 0,1.0713 0.857091,1.9552 1.978002,1.9552 0.361584,0 0.763345,-0.1339 1.071362,-0.4018 2.281999,2.2767 4.969779,3.6828 8.012448,4.1382 0.763346,0.1339 1.546778,0.1339 2.409226,0.1339 3.854222,0 7.60667,-1.2053 11.131449,-2.6382 1.394111,-0.5357 2.738668,-1.0714 4.08189,-1.674 3.575672,-1.5535 7.328116,-3.1204 11.359113,-3.656 0.709778,-0.107 1.419555,-0.134 2.105228,-0.134 2.460115,0 4.564003,0.6696 6.51656,1.9017 0.455329,0.2679 0.883871,0.6696 1.445,1.0713 -0.910659,-0.2678 -1.876224,-0.4017 -2.915444,-0.4017 -4.031001,0 -8.443673,1.7008 -12.297898,3.2676 -1.111536,0.4018 -2.205667,0.8036 -3.169893,1.2053 -0.227657,-0.4017 -0.682994,-0.8035 -1.165103,-0.8035 -0.763345,0 -1.344561,0.6696 -1.344561,1.3928 0,0.6696 0.589248,1.3392 1.344561,1.3392 0.709774,0 1.343218,-0.6696 1.343218,-1.3392 0,-0.107 0,-0.1339 -0.05088,-0.2679 1.044578,-0.4018 2.054335,-0.8035 3.169893,-1.2053 3.726999,-1.4463 7.910667,-3.1471 11.715343,-3.1471 1.699448,0 3.195337,0.4018 4.487666,0.9374 -0.401762,-0.053 -0.857091,-0.107 -1.299026,-0.107 -1.978002,0 -4.132779,0.6697 -6.263451,1.9285 -0.281233,-0.4018 -0.682991,-0.5357 -1.165104,-0.5357 -0.85709,0 -1.521336,0.6696 -1.521336,1.5669 0,0.9374 0.65621,1.5668 1.521336,1.5668 0.883871,0 1.572223,-0.6696 1.572223,-1.5668 0,-0.2679 -0.05088,-0.4018 -0.101764,-0.6696 1.978001,-1.2053 3.854222,-1.8214 5.577775,-1.8214 1.044577,0 2.028894,0.2679 2.915444,0.6697 0.05088,0 0.05088,0 0.05088,0 0.05088,0 0.05088,0 0.05088,0 0.361583,0.2678 0.763345,0.6696 1.111535,0.9374 1.648559,1.5669 4.589448,2.5579 7.861123,2.5579 0.76334,0 1.52133,-0.053 2.23111,-0.1339 2.20567,-0.4018 4.43812,-1.0714 6.59289,-1.8749 2.94089,-1.0714 5.98356,-2.1026 9.02757,-2.1026 1.11153,0 2.282,0.2679 3.32122,0.5357 1.01779,-0.2679 2.23111,-0.5357 3.34666,-0.5357 2.99178,0 6.08534,1.0714 9.02622,2.1026 2.15479,0.8035 4.38725,1.5267 6.54201,1.8749 0.70979,0.1339 1.47043,0.1339 2.28199,0.1339 3.2208,0 6.16167,-0.9375 7.81023,-2.5579 0.40178,-0.4018 0.76337,-0.6696 1.08479,-0.9374 l 0.12578,-0.028 0,0 c 0.93746,-0.4017 1.87622,-0.6696 2.91547,-0.6696 1.77442,0 3.65064,0.6696 5.62865,1.8213 -0.10169,0.2679 -0.12579,0.4018 -0.12579,0.6696 0,0.9375 0.7098,1.5669 1.5468,1.5669 0.85709,0 1.57224,-0.6696 1.57224,-1.5669 0,-0.8035 -0.7098,-1.5668 -1.57224,-1.5668 -0.42856,0 -0.8303,0.1339 -1.16511,0.5356 -2.12932,-1.2052 -4.28545,-1.9284 -6.21255,-1.9284 -0.48214,0 -0.88388,0.053 -1.34458,0.1339 1.29905,-0.6696 2.78957,-1.0713 4.48767,-1.0713 3.80335,0 8.03788,1.7008 11.71399,3.1471 1.11158,0.5357 2.12936,0.9374 3.16992,1.2053 0,0.053 0,0.1339 0,0.2678 0,0.6696 0.58925,1.3392 1.3432,1.3392 0.76337,0 1.34323,-0.6696 1.34323,-1.3392 0,-0.8035 -0.58925,-1.3392 -1.34323,-1.3392 -0.48211,0 -0.991,0.2679 -1.21865,0.6697 -0.96424,-0.4018 -2.05434,-0.8036 -3.119,-1.2053 -3.90511,-1.5669 -8.31646,-3.2677 -12.2979,-3.2677 -1.08475,0 -2.05434,0.1339 -2.91547,0.4018 0.50893,-0.4018 0.99103,-0.8035 1.445,-1.0714 1.90169,-1.2053 4.05645,-1.9017 6.51657,-1.9017 0.683,0 1.39411,0.053 2.10522,0.134 4.03235,0.5356 7.7339,2.1025 11.30956,3.656 1.34323,0.5357 2.73869,1.2053 4.13281,1.674 3.47389,1.366 7.27721,2.6382 11.08056,2.6382 0.85709,0 1.64856,-0.054 2.46012,-0.1339 2.99175,-0.4018 5.67953,-1.8481 7.96152,-4.1381 0.3616,0.2678 0.7098,0.4017 1.11154,0.4017 1.07139,0 1.92713,-0.9374 1.92713,-1.9552 0,-1.0714 -0.85709,-1.9285 -1.92713,-1.9285 z"
       style="fill:#ffffff;fill-opacity:1;fill-rule:evenodd;stroke:none;stroke-width:0.19109249"
       inkscape:connector-curvature="0" />
  </g>
</svg>
