<!-- Generated by IcoMoon.io -->
<svg version="1.1" xmlns="http://www.w3.org/2000/svg" width="31" height="24" viewBox="0 0 31 24">
<title>cc-paypal</title>
<path d="M9.997 11.695c0 0.658-0.523 1.154-1.181 1.154-0.497 0-0.859-0.282-0.859-0.805 0-0.658 0.51-1.181 1.167-1.181 0.497 0 0.872 0.309 0.872 0.832zM20.531 9.696c0 0.805-0.483 0.966-1.181 0.966l-0.429 0.013 0.228-1.436c0.013-0.094 0.081-0.148 0.174-0.148h0.242c0.456 0 0.966 0.027 0.966 0.604zM25.241 11.695c0 0.658-0.523 1.154-1.167 1.154-0.497 0-0.872-0.282-0.872-0.805 0-0.658 0.51-1.181 1.167-1.181 0.497 0 0.872 0.309 0.872 0.832zM6.884 9.401c0-1.127-0.872-1.503-1.865-1.503h-2.147c-0.134 0-0.268 0.107-0.282 0.255l-0.872 5.475c-0.013 0.107 0.067 0.215 0.174 0.215h1.020c0.148 0 0.282-0.107 0.295-0.255l0.242-1.476c0.054-0.389 0.711-0.255 0.966-0.255 1.53 0 2.469-0.912 2.469-2.456zM11.030 13.587l0.55-3.502c0.013-0.107-0.067-0.215-0.174-0.215h-1.020c-0.201 0-0.215 0.295-0.228 0.443-0.309-0.456-0.765-0.537-1.275-0.537-1.315 0-2.322 1.154-2.322 2.429 0 1.047 0.658 1.731 1.704 1.731 0.483 0 1.087-0.215 1.422-0.59-0.027 0.081-0.054 0.201-0.054 0.282 0 0.121 0.054 0.215 0.174 0.215h0.926c0.148 0 0.268-0.107 0.295-0.255zM17.029 10.058c0-0.094-0.081-0.188-0.174-0.188h-1.033c-0.094 0-0.188 0.054-0.242 0.134l-1.422 2.093-0.59-2.013c-0.040-0.121-0.161-0.215-0.295-0.215h-1.006c-0.094 0-0.174 0.094-0.174 0.188 0 0.067 1.047 3.1 1.141 3.382-0.148 0.201-1.1 1.449-1.1 1.61 0 0.094 0.081 0.174 0.174 0.174h1.033c0.094 0 0.188-0.054 0.242-0.134l3.422-4.938c0.027-0.027 0.027-0.054 0.027-0.094zM22.128 9.401c0-1.127-0.872-1.503-1.865-1.503h-2.134c-0.148 0-0.282 0.107-0.295 0.255l-0.872 5.475c-0.013 0.107 0.067 0.215 0.174 0.215h1.1c0.107 0 0.188-0.081 0.215-0.174l0.242-1.557c0.054-0.389 0.711-0.255 0.966-0.255 1.53 0 2.469-0.912 2.469-2.456zM26.275 13.587l0.55-3.502c0.013-0.107-0.067-0.215-0.174-0.215h-1.020c-0.201 0-0.215 0.295-0.228 0.443-0.295-0.456-0.751-0.537-1.275-0.537-1.315 0-2.322 1.154-2.322 2.429 0 1.047 0.658 1.731 1.704 1.731 0.497 0 1.1-0.215 1.422-0.59-0.013 0.081-0.054 0.201-0.054 0.282 0 0.121 0.054 0.215 0.174 0.215h0.926c0.148 0 0.268-0.107 0.295-0.255zM29.2 8.099v-0.013c0-0.107-0.081-0.188-0.174-0.188h-0.993c-0.081 0-0.161 0.067-0.174 0.148l-0.872 5.582-0.013 0.027c0 0.094 0.081 0.188 0.188 0.188h0.886c0.134 0 0.268-0.107 0.282-0.255zM5.26 9.897c-0.107 0.684-0.564 0.765-1.154 0.765l-0.443 0.013 0.228-1.436c0.013-0.094 0.094-0.148 0.174-0.148h0.255c0.604 0 1.060 0.081 0.939 0.805zM30.917 2.973v17.176c0 0.939-0.778 1.718-1.718 1.718h-27.482c-0.939 0-1.718-0.778-1.718-1.718v-17.176c0-0.939 0.778-1.718 1.718-1.718h27.482c0.939 0 1.718 0.778 1.718 1.718z"></path>
</svg>
