<!-- Generated by IcoMoon.io -->
<svg version="1.1" xmlns="http://www.w3.org/2000/svg" width="21" height="24" viewBox="0 0 21 24">
<title>paypal</title>
<path d="M20.384 8.206v0c0.174 0.805 0.134 1.731-0.054 2.737-0.872 4.428-3.811 5.958-7.582 5.958h-0.59c-0.456 0-0.832 0.335-0.912 0.792l-0.054 0.255-0.738 4.643-0.027 0.201c-0.094 0.456-0.47 0.792-0.926 0.792h-3.368c-0.376 0-0.617-0.309-0.564-0.684 0.242-1.503 0.47-3.006 0.711-4.509s0.483-2.992 0.725-4.495c0.040-0.322 0.255-0.497 0.577-0.497 0.537 0 1.074-0.013 1.758 0 0.966 0.013 2.080-0.040 3.167-0.282 1.449-0.322 2.764-0.912 3.851-1.932 0.98-0.912 1.637-2.040 2.080-3.301 0.201-0.59 0.362-1.181 0.47-1.785 0.027-0.161 0.067-0.134 0.161-0.067 0.738 0.55 1.154 1.288 1.315 2.174zM18.075 4.422c0 1.1-0.255 2.147-0.617 3.167-0.698 2.026-2.013 3.476-4.053 4.227-1.087 0.389-2.228 0.55-3.382 0.564-0.805 0.013-1.61 0-2.415 0-0.872 0-1.422 0.429-1.583 1.288-0.188 1.020-0.926 5.77-1.141 7.112-0.013 0.094-0.054 0.134-0.161 0.134h-3.959c-0.403 0-0.698-0.349-0.644-0.738l3.113-19.739c0.081-0.51 0.537-0.899 1.060-0.899h8.025c0.577 0 1.905 0.255 2.805 0.604 1.905 0.738 2.952 2.241 2.952 4.281z"></path>
</svg>
